<svg width="512" height="512" viewBox="0 0 512 512" xmlns="http://www.w3.org/2000/svg">
  <rect width="512" height="512" rx="80" ry="80" fill="#fdfcfa"/>
  <rect x="20" y="20" width="472" height="472" rx="60" ry="60" fill="#3F3226" stroke="#A7835A" stroke-width="4"/>
  
  <!-- A -->
  <path d="M80 380 L140 200 L180 200 L240 380 L210 380 L200 350 L120 350 L110 380 Z M130 320 L190 320 L160 240 Z" fill="#A7835A"/>
  
  <!-- B -->
  <path d="M280 200 L280 380 L320 380 Q360 380 380 360 Q400 340 400 320 Q400 300 380 280 Q360 260 320 260 L320 260 Q350 260 365 240 Q380 220 380 200 Q380 180 365 160 Q350 140 320 140 L280 140 Z M310 170 L320 170 Q340 170 350 180 Q360 190 360 200 Q360 210 350 220 Q340 230 320 230 L310 230 Z M310 260 L320 260 Q345 260 357.5 275 Q370 290 370 310 Q370 330 357.5 345 Q345 360 320 360 L310 360 Z" fill="#A7835A"/>
  
  <!-- Y -->
  <path d="M420 200 L450 250 L480 200 L510 200 L470 270 L470 380 L450 380 L450 270 L410 200 Z" fill="#A7835A"/>
  
  <!-- K -->
  <path d="M100 450 L100 470 L480 470 L480 450 Z" fill="#A7835A"/>
  <path d="M120 440 L120 460 L400 460 L400 440 Z" fill="#5C4430"/>
</svg>
