<svg width="192" height="192" viewBox="0 0 192 192" xmlns="http://www.w3.org/2000/svg">
  <rect width="192" height="192" rx="30" ry="30" fill="#fdfcfa"/>
  <rect x="8" y="8" width="176" height="176" rx="22" ry="22" fill="#3F3226" stroke="#A7835A" stroke-width="2"/>
  
  <!-- A -->
  <path d="M30 142 L52 75 L67 75 L89 142 L78 142 L74 130 L45 130 L41 142 Z M48 120 L71 120 L60 90 Z" fill="#A7835A"/>
  
  <!-- B -->
  <path d="M104 75 L104 142 L119 142 Q134 142 142 134 Q149 127 149 120 Q149 112 142 105 Q134 97 119 97 L119 97 Q130 97 136 90 Q142 82 142 75 Q142 67 136 60 Q130 52 119 52 L104 52 Z M115 63 L119 63 Q127 63 131 67 Q134 71 134 75 Q134 78 131 82 Q127 86 119 86 L115 86 Z M115 97 L119 97 Q129 97 134 103 Q138 108 138 116 Q138 123 134 129 Q129 134 119 134 L115 134 Z" fill="#A7835A"/>
  
  <!-- Y -->
  <path d="M156 75 L168 94 L179 75 L190 75 L175 101 L175 142 L168 142 L168 101 L153 75 Z" fill="#A7835A"/>
  
  <!-- K -->
  <path d="M37 168 L37 176 L179 176 L179 168 Z" fill="#A7835A"/>
  <path d="M45 164 L45 172 L149 172 L149 164 Z" fill="#5C4430"/>
</svg>
