<svg xmlns="http://www.w3.org/2000/svg" xmlns:xlink="http://www.w3.org/1999/xlink" width="5000" zoomAndPan="magnify" viewBox="0 0 3750 2250.000011" height="3000" preserveAspectRatio="xMidYMid meet" version="1.0"><defs><g/><clipPath id="1c1e366688"><path d="M 0.0859375 463 L 2186 463 L 2186 954 L 0.0859375 954 Z M 0.0859375 463 " clip-rule="nonzero"/></clipPath><clipPath id="19c656e4e9"><rect x="0" width="2186" y="0" height="491"/></clipPath><clipPath id="dd7d1390e4"><path d="M 2166 164 L 3248.480469 164 L 3248.480469 1032.039062 L 2166 1032.039062 Z M 2166 164 " clip-rule="nonzero"/></clipPath><clipPath id="ce860d52e7"><rect x="0" width="1083" y="0" height="869"/></clipPath><clipPath id="86c1fecff4"><rect x="0" width="92" y="0" height="664"/></clipPath><clipPath id="a2fb69277e"><path d="M 2070 0.976562 L 2171 0.976562 L 2171 188 L 2070 188 Z M 2070 0.976562 " clip-rule="nonzero"/></clipPath><clipPath id="d9139d447c"><rect x="0" width="101" y="0" height="188"/></clipPath><clipPath id="afc4ae9ebf"><rect x="0" width="3249" y="0" height="1033"/></clipPath></defs><g transform="matrix(1, 0, 0, 1, 244, 593)"><g clip-path="url(#afc4ae9ebf)"><g clip-path="url(#1c1e366688)"><g transform="matrix(1, 0, 0, 1, -0.000000000000056843, 463)"><g clip-path="url(#19c656e4e9)"><g fill="#a07d54" fill-opacity="1"><g transform="translate(0.170796, 391.152284)"><g><path d="M 17.203125 0.484375 L 157.328125 -314.65625 L 160.28125 -314.65625 L 295 0.484375 L 275.8125 0.484375 L 222.71875 -123.890625 L 83.578125 -123.890625 L 28.515625 0.484375 Z M 87.515625 -131.765625 L 219.28125 -131.765625 L 154.375 -282.703125 Z M 87.515625 -131.765625 "/></g></g></g><g fill="#a07d54" fill-opacity="1"><g transform="translate(349.744019, 391.152284)"><g><path d="M 414.953125 -308.765625 L 423.3125 -308.765625 L 326.953125 6.390625 L 324 6.390625 L 219.765625 -250.25 L 116.03125 6.390625 L 112.59375 6.390625 L 16.21875 -308.765625 L 34.421875 -308.765625 L 120.953125 -27.53125 L 224.1875 -281.71875 L 226.15625 -281.71875 L 328.921875 -28.03125 Z M 414.953125 -308.765625 "/></g></g></g><g fill="#a07d54" fill-opacity="1"><g transform="translate(827.641199, 391.152284)"><g><path d="M 17.203125 0.484375 L 157.328125 -314.65625 L 160.28125 -314.65625 L 295 0.484375 L 275.8125 0.484375 L 222.71875 -123.890625 L 83.578125 -123.890625 L 28.515625 0.484375 Z M 87.515625 -131.765625 L 219.28125 -131.765625 L 154.375 -282.703125 Z M 87.515625 -131.765625 "/></g></g></g><g fill="#a07d54" fill-opacity="1"><g transform="translate(1177.214423, 391.152284)"><g><path d="M 23.59375 0.484375 L 23.59375 -308.765625 L 41.296875 -308.765625 L 41.296875 0.484375 Z M 76.203125 -165.6875 L 217.796875 0.484375 L 194.703125 0.484375 L 58.5 -159.296875 L 204.03125 -308.765625 L 215.34375 -308.765625 Z M 76.203125 -165.6875 "/></g></g></g><g fill="#a07d54" fill-opacity="1"><g transform="translate(1449.59653, 391.152284)"><g><path d="M 180.4375 -300.40625 L 41.296875 -300.40625 L 41.296875 -165.203125 L 167.15625 -165.203125 L 167.15625 -156.84375 L 41.296875 -156.84375 L 41.296875 -7.859375 L 180.4375 -7.859375 L 180.4375 0.484375 L 23.59375 0.484375 L 23.59375 -308.765625 L 180.4375 -308.765625 Z M 180.4375 -300.40625 "/></g></g></g><g fill="#a07d54" fill-opacity="1"><g transform="translate(1687.562179, 391.152284)"><g><path d="M 274.828125 -308.765625 L 274.828125 8.84375 L 272.875 8.84375 L 31.953125 -279.265625 L 31.953125 0.484375 L 23.59375 0.484375 L 23.59375 -314.65625 L 25.078125 -314.65625 L 266.484375 -26.0625 L 266.484375 -308.765625 Z M 274.828125 -308.765625 "/></g></g></g><g fill="#a07d54" fill-opacity="1"><g transform="translate(2024.848478, 391.152284)"><g/></g></g></g></g></g><g clip-path="url(#dd7d1390e4)"><g transform="matrix(1, 0, 0, 1, 2166, 164)"><g clip-path="url(#ce860d52e7)"><g fill="#a07d54" fill-opacity="1"><g transform="translate(2.813686, 694.567568)"><g><path d="M 484.59375 -544.421875 L 484.59375 15.609375 L 481.140625 15.609375 L 56.34375 -492.40625 L 56.34375 0.859375 L 41.609375 0.859375 L 41.609375 -554.8125 L 44.21875 -554.8125 L 469.859375 -45.953125 L 469.859375 -544.421875 Z M 484.59375 -544.421875 "/></g></g></g><g fill="#a07d54" fill-opacity="1"><g transform="translate(532.496913, 694.567568)"><g><path d="M 367.5625 -276.546875 L 507.140625 -276.546875 L 507.140625 -29.46875 C 507.140625 -29.46875 499.476562 -25.710938 484.15625 -18.203125 C 468.84375 -10.691406 447.601562 -3.179688 420.4375 4.328125 C 393.28125 11.847656 361.5 15.609375 325.09375 15.609375 C 303.125 15.609375 279.28125 13.148438 253.5625 8.234375 C 227.851562 3.316406 202.140625 -5.492188 176.421875 -18.203125 C 150.703125 -30.921875 127.148438 -48.113281 105.765625 -69.78125 C 84.378906 -91.457031 67.179688 -118.617188 54.171875 -151.265625 C 41.171875 -183.921875 34.671875 -223.367188 34.671875 -269.609375 C 34.671875 -319.890625 42.757812 -363.085938 58.9375 -399.203125 C 75.125 -435.328125 97.234375 -464.800781 125.265625 -487.625 C 153.296875 -510.457031 185.226562 -527.363281 221.0625 -538.34375 C 256.894531 -549.320312 294.171875 -554.8125 332.890625 -554.8125 C 365.835938 -554.8125 394.300781 -553.078125 418.28125 -549.609375 C 442.269531 -546.148438 460.617188 -542.6875 473.328125 -539.21875 C 486.046875 -535.75 492.40625 -534.015625 492.40625 -534.015625 L 492.40625 -515.8125 C 492.40625 -515.8125 486.191406 -517.832031 473.765625 -521.875 C 461.335938 -525.925781 443.273438 -529.972656 419.578125 -534.015625 C 395.890625 -538.054688 366.992188 -540.078125 332.890625 -540.078125 C 314.972656 -540.078125 294.3125 -537.910156 270.90625 -533.578125 C 247.5 -529.242188 223.800781 -521.296875 199.8125 -509.734375 C 175.832031 -498.179688 153.726562 -482.289062 133.5 -462.0625 C 113.269531 -441.832031 96.941406 -415.96875 84.515625 -384.46875 C 72.097656 -352.96875 65.890625 -314.679688 65.890625 -269.609375 C 65.890625 -218.742188 73.398438 -175.972656 88.421875 -141.296875 C 103.453125 -106.628906 123.679688 -78.742188 149.109375 -57.640625 C 174.535156 -36.546875 203.140625 -21.375 234.921875 -12.125 C 266.710938 -2.882812 299.367188 1.734375 332.890625 1.734375 C 363.523438 1.734375 391.265625 -1.875 416.109375 -9.09375 C 440.960938 -16.320312 460.90625 -23.691406 475.9375 -31.203125 L 475.9375 -262.671875 L 367.5625 -262.671875 Z M 367.5625 -276.546875 "/></g></g></g></g></g></g><g transform="matrix(1, 0, 0, 1, 2073, 223)"><g clip-path="url(#86c1fecff4)"><g fill="#a07d54" fill-opacity="1"><g transform="translate(5.889028, 56.309718)"><g><path d="M 31.234375 -4.21875 C 31.660156 -3.675781 31.875 -3.132812 31.875 -2.59375 C 31.875 -1.90625 31.546875 -1.3125 30.890625 -0.8125 C 30.421875 -0.382812 29.878906 -0.171875 29.265625 -0.171875 C 28.578125 -0.171875 27.984375 -0.5 27.484375 -1.15625 L 13.34375 -18.640625 L 10.859375 -16.046875 L 10.859375 -2.421875 C 10.859375 -1.648438 10.644531 -1.050781 10.21875 -0.625 C 9.789062 -0.207031 9.191406 0 8.421875 0 C 7.660156 0 7.066406 -0.207031 6.640625 -0.625 C 6.210938 -1.050781 6 -1.648438 6 -2.421875 L 6 -36.71875 C 6 -37.488281 6.210938 -38.082031 6.640625 -38.5 C 7.066406 -38.925781 7.660156 -39.140625 8.421875 -39.140625 C 9.191406 -39.140625 9.789062 -38.925781 10.21875 -38.5 C 10.644531 -38.082031 10.859375 -37.488281 10.859375 -36.71875 L 10.859375 -22.984375 L 25.578125 -38.21875 C 26.148438 -38.800781 26.726562 -39.09375 27.3125 -39.09375 C 27.882812 -39.09375 28.441406 -38.820312 28.984375 -38.28125 C 29.554688 -37.695312 29.84375 -37.117188 29.84375 -36.546875 C 29.84375 -35.972656 29.578125 -35.414062 29.046875 -34.875 L 16.796875 -22.171875 Z M 31.234375 -4.21875 "/></g></g></g><g fill="#a07d54" fill-opacity="1"><g transform="translate(2.872643, 175.1994)"><g><path d="M 15.765625 0 C 12.453125 0 9.878906 -0.660156 8.046875 -1.984375 C 6.222656 -3.316406 5.082031 -5.367188 4.625 -8.140625 C 4.539062 -8.953125 4.710938 -9.578125 5.140625 -10.015625 C 5.566406 -10.460938 6.179688 -10.6875 6.984375 -10.6875 C 7.753906 -10.6875 8.332031 -10.5 8.71875 -10.125 C 9.101562 -9.757812 9.375 -9.15625 9.53125 -8.3125 C 9.800781 -7 10.40625 -6.09375 11.34375 -5.59375 C 12.289062 -5.09375 13.765625 -4.84375 15.765625 -4.84375 L 24.078125 -4.84375 C 25.765625 -4.84375 27.0625 -5.035156 27.96875 -5.421875 C 28.875 -5.804688 29.519531 -6.453125 29.90625 -7.359375 C 30.289062 -8.265625 30.484375 -9.546875 30.484375 -11.203125 C 30.484375 -13.660156 30.019531 -15.351562 29.09375 -16.28125 C 28.175781 -17.207031 26.503906 -17.671875 24.078125 -17.671875 L 16.921875 -17.671875 C 13.296875 -17.671875 10.597656 -18.554688 8.828125 -20.328125 C 7.054688 -22.097656 6.171875 -24.8125 6.171875 -28.46875 C 6.171875 -32.082031 7.046875 -34.765625 8.796875 -36.515625 C 10.554688 -38.265625 13.242188 -39.140625 16.859375 -39.140625 L 23.734375 -39.140625 C 29.804688 -39.140625 33.304688 -36.597656 34.234375 -31.515625 C 34.347656 -30.710938 34.191406 -30.085938 33.765625 -29.640625 C 33.347656 -29.203125 32.71875 -28.984375 31.875 -28.984375 C 31.101562 -28.984375 30.523438 -29.175781 30.140625 -29.5625 C 29.753906 -29.945312 29.503906 -30.539062 29.390625 -31.34375 C 29.078125 -32.46875 28.5 -33.238281 27.65625 -33.65625 C 26.8125 -34.082031 25.503906 -34.296875 23.734375 -34.296875 L 16.859375 -34.296875 C 15.273438 -34.296875 14.070312 -34.117188 13.25 -33.765625 C 12.425781 -33.421875 11.847656 -32.832031 11.515625 -32 C 11.191406 -31.175781 11.03125 -30 11.03125 -28.46875 C 11.03125 -26.882812 11.203125 -25.675781 11.546875 -24.84375 C 11.890625 -24.019531 12.472656 -23.425781 13.296875 -23.0625 C 14.128906 -22.695312 15.335938 -22.515625 16.921875 -22.515625 L 24.078125 -22.515625 C 27.890625 -22.515625 30.71875 -21.585938 32.5625 -19.734375 C 34.40625 -17.890625 35.328125 -15.046875 35.328125 -11.203125 C 35.328125 -7.390625 34.40625 -4.566406 32.5625 -2.734375 C 30.71875 -0.910156 27.890625 0 24.078125 0 Z M 15.765625 0 "/></g></g></g><g fill="#a07d54" fill-opacity="1"><g transform="translate(5.429213, 294.089082)"><g><path d="M 29.15625 -4.84375 C 29.925781 -4.84375 30.519531 -4.628906 30.9375 -4.203125 C 31.363281 -3.785156 31.578125 -3.191406 31.578125 -2.421875 C 31.578125 -1.648438 31.363281 -1.050781 30.9375 -0.625 C 30.519531 -0.207031 29.925781 0 29.15625 0 L 8.421875 0 C 7.660156 0 7.066406 -0.207031 6.640625 -0.625 C 6.210938 -1.050781 6 -1.648438 6 -2.421875 L 6 -36.71875 C 6 -37.488281 6.210938 -38.082031 6.640625 -38.5 C 7.066406 -38.925781 7.660156 -39.140625 8.421875 -39.140625 L 29.15625 -39.140625 C 29.925781 -39.140625 30.519531 -38.925781 30.9375 -38.5 C 31.363281 -38.082031 31.578125 -37.488281 31.578125 -36.71875 C 31.578125 -35.945312 31.363281 -35.347656 30.9375 -34.921875 C 30.519531 -34.503906 29.925781 -34.296875 29.15625 -34.296875 L 10.859375 -34.296875 L 10.859375 -22.171875 L 22.34375 -22.171875 C 23.113281 -22.171875 23.707031 -21.957031 24.125 -21.53125 C 24.550781 -21.113281 24.765625 -20.519531 24.765625 -19.75 C 24.765625 -18.976562 24.550781 -18.378906 24.125 -17.953125 C 23.707031 -17.535156 23.113281 -17.328125 22.34375 -17.328125 L 10.859375 -17.328125 L 10.859375 -4.84375 Z M 29.15625 -4.84375 "/></g></g></g><g fill="#a07d54" fill-opacity="1"><g transform="translate(0.9966, 412.978764)"><g><path d="M 35.28125 -39.140625 C 36.050781 -39.140625 36.644531 -38.925781 37.0625 -38.5 C 37.488281 -38.082031 37.703125 -37.488281 37.703125 -36.71875 L 37.703125 -2.421875 C 37.703125 -1.648438 37.488281 -1.050781 37.0625 -0.625 C 36.644531 -0.207031 36.050781 0 35.28125 0 C 34.8125 0 34.382812 -0.113281 34 -0.34375 C 33.613281 -0.570312 33.226562 -0.9375 32.84375 -1.4375 L 10.859375 -29.796875 L 10.859375 -2.421875 C 10.859375 -1.648438 10.644531 -1.050781 10.21875 -0.625 C 9.789062 -0.207031 9.191406 0 8.421875 0 C 7.660156 0 7.066406 -0.207031 6.640625 -0.625 C 6.210938 -1.050781 6 -1.648438 6 -2.421875 L 6 -36.71875 C 6 -37.488281 6.210938 -38.082031 6.640625 -38.5 C 7.066406 -38.925781 7.660156 -39.140625 8.421875 -39.140625 C 8.890625 -39.140625 9.304688 -39.023438 9.671875 -38.796875 C 10.035156 -38.566406 10.429688 -38.203125 10.859375 -37.703125 L 32.84375 -9.359375 L 32.84375 -36.71875 C 32.84375 -37.488281 33.054688 -38.082031 33.484375 -38.5 C 33.910156 -38.925781 34.507812 -39.140625 35.28125 -39.140625 Z M 35.28125 -39.140625 "/></g></g></g><g fill="#a07d54" fill-opacity="1"><g transform="translate(14.404795, 531.868447)"><g><path d="M 8.421875 0 C 7.578125 0 6.960938 -0.191406 6.578125 -0.578125 C 6.191406 -0.960938 6 -1.578125 6 -2.421875 L 6 -36.65625 C 6 -37.507812 6.191406 -38.128906 6.578125 -38.515625 C 6.960938 -38.898438 7.578125 -39.09375 8.421875 -39.09375 C 9.273438 -39.09375 9.894531 -38.898438 10.28125 -38.515625 C 10.664062 -38.128906 10.859375 -37.507812 10.859375 -36.65625 L 10.859375 -2.421875 C 10.859375 -1.578125 10.664062 -0.960938 10.28125 -0.578125 C 9.894531 -0.191406 9.273438 0 8.421875 0 Z M 8.421875 0 "/></g></g></g><g fill="#a07d54" fill-opacity="1"><g transform="translate(3.608347, 650.758129)"><g><path d="M 35.859375 -3.40625 C 36.003906 -3.0625 36.078125 -2.675781 36.078125 -2.25 C 36.078125 -1.320312 35.5625 -0.648438 34.53125 -0.234375 C 34.175781 -0.078125 33.789062 0 33.375 0 C 32.445312 0 31.769531 -0.519531 31.34375 -1.5625 L 28.234375 -9.125 L 10.28125 -9.125 L 7.28125 -1.5625 C 6.851562 -0.519531 6.175781 0 5.25 0 C 4.863281 0 4.5 -0.078125 4.15625 -0.234375 C 3.082031 -0.617188 2.546875 -1.289062 2.546875 -2.25 C 2.546875 -2.675781 2.617188 -3.0625 2.765625 -3.40625 L 16.515625 -37.234375 C 17.085938 -38.503906 17.988281 -39.140625 19.21875 -39.140625 L 19.34375 -39.140625 C 20.613281 -39.066406 21.457031 -38.429688 21.875 -37.234375 Z M 12.1875 -13.96875 L 26.265625 -13.96875 L 19.046875 -31.46875 Z M 12.1875 -13.96875 "/></g></g></g></g></g><g clip-path="url(#a2fb69277e)"><g transform="matrix(1, 0, 0, 1, 2070, -0.000000000000341061)"><g clip-path="url(#d9139d447c)"><g fill="#a07d54" fill-opacity="1"><g transform="translate(1.386071, 64.058872)"><g><path d="M 5.75 0 C 5.363281 0 5.0625 -0.101562 4.84375 -0.3125 C 4.632812 -0.53125 4.53125 -0.8125 4.53125 -1.15625 L 4.53125 -46.609375 C 4.53125 -47.046875 4.644531 -47.378906 4.875 -47.609375 C 5.113281 -47.847656 5.425781 -47.96875 5.8125 -47.96875 L 23.34375 -47.96875 C 29.675781 -47.96875 34.507812 -46.898438 37.84375 -44.765625 C 41.1875 -42.640625 42.859375 -39.503906 42.859375 -35.359375 C 42.859375 -32.953125 42.210938 -30.914062 40.921875 -29.25 C 39.628906 -27.59375 37.453125 -26.140625 34.390625 -24.890625 C 34.265625 -24.847656 34.203125 -24.757812 34.203125 -24.625 C 34.203125 -24.5 34.265625 -24.414062 34.390625 -24.375 C 37.753906 -23.25 40.203125 -21.789062 41.734375 -20 C 43.265625 -18.21875 44.03125 -15.882812 44.03125 -13 C 44.03125 -8.601562 42.378906 -5.335938 39.078125 -3.203125 C 35.785156 -1.066406 30.820312 0 24.1875 0 Z M 24.3125 -28.1875 C 26.425781 -28.1875 28.179688 -28.691406 29.578125 -29.703125 C 30.984375 -30.722656 31.6875 -32.179688 31.6875 -34.078125 C 31.6875 -36.054688 30.953125 -37.59375 29.484375 -38.6875 C 28.015625 -39.789062 26.097656 -40.34375 23.734375 -40.34375 L 17.0625 -40.34375 C 16.632812 -40.34375 16.320312 -40.253906 16.125 -40.078125 C 15.9375 -39.910156 15.84375 -39.632812 15.84375 -39.25 L 15.84375 -29.359375 C 15.84375 -28.921875 15.90625 -28.613281 16.03125 -28.4375 C 16.164062 -28.269531 16.40625 -28.1875 16.75 -28.1875 Z M 23.859375 -7.625 C 26.617188 -7.625 28.707031 -8.195312 30.125 -9.34375 C 31.550781 -10.488281 32.265625 -12.050781 32.265625 -14.03125 C 32.265625 -16.007812 31.53125 -17.546875 30.0625 -18.640625 C 28.59375 -19.742188 26.675781 -20.296875 24.3125 -20.296875 L 17.0625 -20.296875 C 16.59375 -20.296875 16.269531 -20.21875 16.09375 -20.0625 C 15.925781 -19.914062 15.84375 -19.628906 15.84375 -19.203125 L 15.84375 -8.859375 C 15.84375 -8.429688 15.90625 -8.117188 16.03125 -7.921875 C 16.164062 -7.722656 16.40625 -7.625 16.75 -7.625 Z M 23.859375 -7.625 "/></g></g></g><g fill="#a07d54" fill-opacity="1"><g transform="translate(1.005844, 171.536244)"><g><path d="M 44.609375 -47.96875 C 45.210938 -47.96875 45.515625 -47.753906 45.515625 -47.328125 C 45.515625 -47.148438 45.453125 -46.9375 45.328125 -46.6875 L 30.125 -21.796875 C 29.863281 -21.398438 29.710938 -21.019531 29.671875 -20.65625 C 29.628906 -20.289062 29.609375 -19.523438 29.609375 -18.359375 L 29.609375 -1.546875 C 29.609375 -0.515625 29.003906 0 27.796875 0 L 19.71875 0 C 19.195312 0 18.828125 -0.101562 18.609375 -0.3125 C 18.398438 -0.53125 18.296875 -0.878906 18.296875 -1.359375 L 18.296875 -18.75 C 18.296875 -19.269531 18.238281 -19.664062 18.125 -19.9375 C 18.019531 -20.21875 17.816406 -20.617188 17.515625 -21.140625 L 2.203125 -46.484375 C 2.023438 -46.828125 1.9375 -47.066406 1.9375 -47.203125 C 1.9375 -47.410156 2.046875 -47.585938 2.265625 -47.734375 C 2.484375 -47.890625 2.785156 -47.96875 3.171875 -47.96875 L 12.859375 -47.96875 C 13.378906 -47.96875 13.769531 -47.890625 14.03125 -47.734375 C 14.289062 -47.585938 14.523438 -47.28125 14.734375 -46.8125 L 24.3125 -30 C 24.570312 -29.53125 24.785156 -29.296875 24.953125 -29.296875 C 25.171875 -29.296875 25.367188 -29.488281 25.546875 -29.875 L 34.984375 -46.8125 C 35.234375 -47.28125 35.476562 -47.585938 35.71875 -47.734375 C 35.957031 -47.890625 36.335938 -47.96875 36.859375 -47.96875 Z M 44.609375 -47.96875 "/></g></g></g></g></g></g></g></g></svg>