<svg xmlns="http://www.w3.org/2000/svg" xmlns:xlink="http://www.w3.org/1999/xlink" width="5000" zoomAndPan="magnify" viewBox="0 0 3750 2250.000011" height="3000" preserveAspectRatio="xMidYMid meet" version="1.0"><defs><g/></defs><g fill="#a17e55" fill-opacity="1"><g transform="translate(397.021251, 1179.367565)"><g><path d="M 122.03125 143.46875 C 121.132812 143.769531 120.3125 143.921875 119.5625 143.921875 C 117.300781 143.921875 114.96875 142.492188 112.5625 139.640625 C 110.757812 137.378906 109.554688 135.117188 108.953125 132.859375 C 108.347656 130.609375 108.046875 128.128906 108.046875 125.421875 C 107.597656 116.992188 108.125 108.867188 109.625 101.046875 C 111.132812 93.234375 112.71875 85.867188 114.375 78.953125 C 116.78125 68.421875 120.5 56.835938 125.53125 44.203125 C 130.570312 31.578125 136.472656 18.421875 143.234375 4.734375 C 150.003906 -8.953125 157.1875 -22.710938 164.78125 -36.546875 C 172.375 -50.378906 180.003906 -63.800781 187.671875 -76.8125 C 195.347656 -89.820312 202.609375 -101.851562 209.453125 -112.90625 C 216.296875 -123.957031 222.269531 -133.46875 227.375 -141.4375 C 232.1875 -148.800781 236.550781 -156.320312 240.46875 -164 C 242.570312 -168.050781 244.523438 -172.035156 246.328125 -175.953125 C 246.484375 -176.097656 246.785156 -176.546875 247.234375 -177.296875 C 248.429688 -179.703125 249.441406 -181.957031 250.265625 -184.0625 C 251.097656 -186.175781 250.835938 -187.757812 249.484375 -188.8125 C 248.890625 -189.414062 248.210938 -189.71875 247.453125 -189.71875 C 246.398438 -189.71875 245.425781 -189.414062 244.53125 -188.8125 L 241.140625 -186.328125 C 238.128906 -184.222656 235.082031 -182.117188 232 -180.015625 C 228.914062 -177.910156 226.023438 -175.65625 223.328125 -173.25 C 219.710938 -170.082031 216.285156 -166.804688 213.046875 -163.421875 C 209.816406 -160.046875 206.625 -156.550781 203.46875 -152.9375 C 194.894531 -143.3125 186.359375 -133.6875 177.859375 -124.0625 C 169.367188 -114.4375 160.835938 -104.8125 152.265625 -95.1875 C 149.109375 -91.582031 144.820312 -86.769531 139.40625 -80.75 C 133.988281 -74.738281 128.046875 -68.160156 121.578125 -61.015625 C 115.117188 -53.867188 108.65625 -46.757812 102.1875 -39.6875 C 95.71875 -32.625 89.773438 -26.082031 84.359375 -20.0625 C 78.953125 -14.050781 74.59375 -9.242188 71.28125 -5.640625 C 59.851562 7.140625 48.425781 16.914062 37 23.6875 C 35.1875 24.738281 33.300781 25.753906 31.34375 26.734375 C 29.394531 27.710938 27.296875 28.203125 25.046875 28.203125 C 22.335938 28.203125 19.703125 27.222656 17.140625 25.265625 C 13.378906 22.554688 11.382812 19.546875 11.15625 16.234375 C 10.9375 12.929688 10.976562 9.550781 11.28125 6.09375 L 11.5 4.734375 C 12.25 -2.628906 13.453125 -8.867188 15.109375 -13.984375 C 31.054688 -61.953125 52.640625 -103.6875 79.859375 -139.1875 C 80.160156 -139.632812 80.457031 -140.046875 80.75 -140.421875 C 81.050781 -140.796875 81.351562 -141.207031 81.65625 -141.65625 C 82.863281 -143.3125 84.253906 -145.039062 85.828125 -146.84375 C 87.410156 -148.65625 89.101562 -149.5625 90.90625 -149.5625 C 91.8125 -149.5625 92.789062 -149.1875 93.84375 -148.4375 C 95.5 -147.082031 96.472656 -145.800781 96.765625 -144.59375 C 97.066406 -143.09375 96.726562 -141.625 95.75 -140.1875 C 94.78125 -138.757812 93.691406 -137.375 92.484375 -136.03125 C 91.878906 -135.425781 91.351562 -134.859375 90.90625 -134.328125 C 90.457031 -133.804688 90.082031 -133.242188 89.78125 -132.640625 C 74.132812 -108.722656 60.828125 -85.789062 49.859375 -63.84375 C 43.835938 -51.351562 38.347656 -39.019531 33.390625 -26.84375 L 32.25 -24.59375 C 30 -18.875 27.820312 -13.117188 25.71875 -7.328125 C 23.613281 -1.535156 22.109375 4.585938 21.203125 11.046875 L 20.75 12.1875 C 20.601562 13.238281 20.488281 14.328125 20.40625 15.453125 C 20.332031 16.578125 20.597656 17.59375 21.203125 18.5 C 21.953125 19.394531 22.929688 19.921875 24.140625 20.078125 C 24.441406 20.078125 24.890625 20.078125 25.484375 20.078125 C 26.535156 20.078125 27.625 19.925781 28.75 19.625 C 29.882812 19.320312 30.753906 19.019531 31.359375 18.71875 C 32.554688 18.269531 33.679688 17.707031 34.734375 17.03125 C 35.785156 16.351562 36.835938 15.640625 37.890625 14.890625 L 39.25 13.984375 C 49.320312 7.066406 58.53125 -0.675781 66.875 -9.25 C 75.226562 -17.820312 83.316406 -26.46875 91.140625 -35.1875 L 98.578125 -43.3125 C 100.535156 -45.5625 103.617188 -48.976562 107.828125 -53.5625 C 112.035156 -58.15625 116.769531 -63.304688 122.03125 -69.015625 C 127.300781 -74.734375 132.566406 -80.453125 137.828125 -86.171875 C 143.085938 -91.890625 147.785156 -97.078125 151.921875 -101.734375 C 156.054688 -106.398438 159.101562 -109.859375 161.0625 -112.109375 C 170.382812 -122.785156 179.894531 -133.578125 189.59375 -144.484375 C 199.289062 -155.390625 209.40625 -165.878906 219.9375 -175.953125 C 227.457031 -183.171875 234.675781 -188.582031 241.59375 -192.1875 C 242.644531 -192.789062 243.660156 -193.28125 244.640625 -193.65625 C 245.617188 -194.03125 246.707031 -194.21875 247.90625 -194.21875 C 249.414062 -194.21875 250.847656 -193.691406 252.203125 -192.640625 C 254.304688 -191.140625 255.546875 -189.410156 255.921875 -187.453125 C 256.296875 -185.492188 256.257812 -183.3125 255.8125 -180.90625 C 254.15625 -172.9375 251.597656 -165.566406 248.140625 -158.796875 C 244.679688 -152.035156 241.070312 -145.421875 237.3125 -138.953125 C 231.75 -129.628906 225.503906 -119.140625 218.578125 -107.484375 C 211.660156 -95.828125 204.476562 -83.492188 197.03125 -70.484375 C 189.59375 -57.484375 182.1875 -44.210938 174.8125 -30.671875 C 167.445312 -17.140625 160.53125 -3.875 154.0625 9.125 C 147.601562 22.132812 141.96875 34.582031 137.15625 46.46875 C 132.34375 58.351562 128.65625 69.03125 126.09375 78.5 L 125.875 79.859375 C 124.070312 86.617188 122.414062 93.570312 120.90625 100.71875 C 119.40625 107.863281 118.503906 115.195312 118.203125 122.71875 L 118.203125 123.84375 C 118.203125 125.945312 118.273438 128.085938 118.421875 130.265625 C 118.578125 132.453125 119.484375 134.671875 121.140625 136.921875 C 121.734375 137.671875 122.289062 138.457031 122.8125 139.28125 C 123.34375 140.113281 123.609375 140.90625 123.609375 141.65625 C 123.460938 142.414062 122.9375 143.019531 122.03125 143.46875 Z M 122.03125 143.46875 "/></g></g></g><g fill="#a17e55" fill-opacity="1"><g transform="translate(627.783823, 1179.367565)"><g><path d="M 124.296875 -37.890625 C 125.191406 -37.296875 125.71875 -36.695312 125.875 -36.09375 C 126.019531 -35.488281 125.90625 -34.921875 125.53125 -34.390625 C 125.15625 -33.867188 124.742188 -33.382812 124.296875 -32.9375 C 123.691406 -32.332031 123.316406 -31.878906 123.171875 -31.578125 C 110.679688 -12.328125 93.007812 3.757812 70.15625 16.6875 C 67.75 18.039062 64.664062 18.71875 60.90625 18.71875 L 60.453125 18.71875 C 56.691406 18.71875 53.835938 17.742188 51.890625 15.796875 C 49.773438 13.835938 48.71875 10.90625 48.71875 7 C 48.71875 3.53125 49.394531 0.40625 50.75 -2.375 C 52.101562 -5.15625 53.535156 -7.820312 55.046875 -10.375 L 57.296875 -13.984375 C 57.742188 -14.890625 58.226562 -15.789062 58.75 -16.6875 C 59.28125 -17.59375 59.773438 -18.5 60.234375 -19.40625 L 60.453125 -20.078125 C 60.753906 -20.679688 61.015625 -21.429688 61.234375 -22.328125 C 61.460938 -23.234375 61.050781 -24.210938 60 -25.265625 C 58.800781 -26.460938 57.375 -27.0625 55.71875 -27.0625 C 55.113281 -27.0625 54.4375 -26.914062 53.6875 -26.625 C 50.675781 -26.019531 47.703125 -25.300781 44.765625 -24.46875 C 41.835938 -23.644531 38.867188 -22.78125 35.859375 -21.875 C 32.109375 -20.519531 28.460938 -18.941406 24.921875 -17.140625 C 21.390625 -15.335938 17.96875 -13.457031 14.65625 -11.5 C 13.15625 -10.75 11.691406 -9.957031 10.265625 -9.125 C 8.835938 -8.300781 7.367188 -7.515625 5.859375 -6.765625 L 4.96875 -6.3125 C 4.363281 -5.863281 3.679688 -5.488281 2.921875 -5.1875 C 2.171875 -4.882812 1.421875 -4.734375 0.671875 -4.734375 C -0.679688 -4.734375 -2.109375 -5.335938 -3.609375 -6.546875 C -5.265625 -8.046875 -6.09375 -9.429688 -6.09375 -10.703125 C -6.09375 -11.984375 -5.941406 -13.300781 -5.640625 -14.65625 L -5.40625 -15.5625 C -2.707031 -27.894531 1.875 -38.875 8.34375 -48.5 L 8.796875 -49.171875 C 9.097656 -49.773438 9.472656 -50.335938 9.921875 -50.859375 C 10.378906 -51.390625 10.90625 -51.65625 11.5 -51.65625 C 11.957031 -51.65625 12.410156 -51.503906 12.859375 -51.203125 C 13.910156 -50.753906 14.585938 -50.15625 14.890625 -49.40625 C 15.640625 -47.894531 15.675781 -46.125 15 -44.09375 C 14.320312 -42.070312 13.609375 -40.382812 12.859375 -39.03125 C 12.410156 -38.125 12.1875 -37.519531 12.1875 -37.21875 L 4.28125 -16.6875 C 4.132812 -16.382812 3.984375 -15.894531 3.828125 -15.21875 C 3.679688 -14.550781 3.910156 -13.988281 4.515625 -13.53125 C 5.109375 -13.082031 5.859375 -12.859375 6.765625 -12.859375 C 7.671875 -12.859375 8.722656 -13.046875 9.921875 -13.421875 C 11.128906 -13.796875 11.957031 -14.132812 12.40625 -14.4375 C 13.15625 -14.738281 13.832031 -15.078125 14.4375 -15.453125 C 15.039062 -15.828125 15.640625 -16.238281 16.234375 -16.6875 C 16.992188 -17.289062 17.710938 -17.816406 18.390625 -18.265625 C 19.066406 -18.722656 19.78125 -19.101562 20.53125 -19.40625 C 22.9375 -20.601562 25.378906 -21.726562 27.859375 -22.78125 C 30.335938 -23.832031 32.859375 -24.882812 35.421875 -25.9375 C 41.585938 -28.5 47.375 -30.15625 52.78125 -30.90625 C 53.6875 -31.050781 54.515625 -31.125 55.265625 -31.125 C 59.171875 -31.125 62.253906 -29.847656 64.515625 -27.296875 C 67.066406 -24.441406 67.742188 -20.90625 66.546875 -16.6875 C 65.941406 -14.132812 65.148438 -11.65625 64.171875 -9.25 C 63.191406 -6.84375 62.253906 -4.4375 61.359375 -2.03125 C 60.753906 -0.675781 60.1875 0.675781 59.65625 2.03125 C 59.132812 3.382812 58.570312 4.738281 57.96875 6.09375 L 57.75 7 C 57.300781 7.75 57 8.648438 56.84375 9.703125 C 56.695312 10.753906 57.070312 11.726562 57.96875 12.625 C 59.175781 13.832031 60.53125 14.4375 62.03125 14.4375 C 62.632812 14.4375 63.234375 14.359375 63.828125 14.203125 C 64.429688 14.054688 65.035156 13.910156 65.640625 13.765625 C 72.710938 11.660156 78.878906 8.539062 84.140625 4.40625 C 89.398438 0.269531 94.140625 -3.90625 98.359375 -8.125 C 101.816406 -11.582031 105.535156 -15.453125 109.515625 -19.734375 C 113.503906 -24.023438 116.851562 -28.875 119.5625 -34.28125 L 120 -34.734375 C 120.300781 -35.484375 120.710938 -36.269531 121.234375 -37.09375 C 121.765625 -37.925781 122.410156 -38.34375 123.171875 -38.34375 C 123.460938 -38.34375 123.835938 -38.191406 124.296875 -37.890625 Z M 124.296875 -37.890625 "/></g></g></g><g fill="#a17e55" fill-opacity="1"><g transform="translate(774.858342, 1179.367565)"><g><path d="M 96.328125 -195.578125 C 98.128906 -193.921875 98.84375 -192.378906 98.46875 -190.953125 C 98.09375 -189.523438 97.226562 -187.910156 95.875 -186.109375 C 94.0625 -183.992188 92.363281 -181.734375 90.78125 -179.328125 C 89.207031 -176.921875 87.59375 -174.59375 85.9375 -172.34375 C 85.789062 -172.1875 85.679688 -172.035156 85.609375 -171.890625 C 85.535156 -171.742188 85.421875 -171.59375 85.265625 -171.4375 C 77.148438 -159.707031 69.40625 -147.90625 62.03125 -136.03125 C 45.488281 -109.101562 30.597656 -80.898438 17.359375 -51.421875 C 4.128906 -21.953125 -6.46875 8.492188 -14.4375 39.921875 C -19.851562 61.578125 -22.332031 81.351562 -21.875 99.25 C -21.875 100 -21.953125 100.753906 -22.109375 101.515625 C -22.109375 103.160156 -22.03125 104.734375 -21.875 106.234375 C -21.726562 107.742188 -21.050781 109.101562 -19.84375 110.3125 C -18.34375 112.113281 -15.789062 113.238281 -12.1875 113.6875 C -11.582031 113.6875 -11.054688 113.988281 -10.609375 114.59375 C -9.847656 115.195312 -9.394531 116.097656 -9.25 117.296875 C -9.09375 118.648438 -9.351562 119.550781 -10.03125 120 C -10.707031 120.457031 -11.5 120.6875 -12.40625 120.6875 L -12.625 120.6875 C -20.90625 120.6875 -26.242188 116.773438 -28.640625 108.953125 C -29.847656 104.742188 -30.414062 100.679688 -30.34375 96.765625 C -30.269531 92.859375 -30.003906 89.023438 -29.546875 85.265625 L -29.328125 83.015625 C -27.367188 60.453125 -23.269531 38.601562 -17.03125 17.46875 C -10.789062 -3.65625 -3.3125 -24.175781 5.40625 -44.09375 C 14.132812 -64.019531 23.160156 -83.382812 32.484375 -102.1875 C 40.453125 -118.125 48.609375 -133.875 56.953125 -149.4375 C 65.304688 -165.007812 75.5 -179.335938 87.53125 -192.421875 C 87.675781 -192.722656 88.050781 -193.25 88.65625 -194 C 89.25 -194.75 89.882812 -195.460938 90.5625 -196.140625 C 91.238281 -196.816406 92.03125 -197.15625 92.9375 -197.15625 C 93.84375 -197.15625 94.972656 -196.628906 96.328125 -195.578125 Z M 96.328125 -195.578125 "/></g></g></g><g fill="#a17e55" fill-opacity="1"><g transform="translate(845.463144, 1179.367565)"><g><path d="M 80.984375 -36.546875 C 82.179688 -36.390625 82.859375 -36.160156 83.015625 -35.859375 C 83.160156 -34.960938 82.628906 -34.132812 81.421875 -33.375 C 80.222656 -32.625 78.875 -31.984375 77.375 -31.453125 C 75.875 -30.929688 74.742188 -30.597656 73.984375 -30.453125 C 70.078125 -29.242188 66.171875 -28.640625 62.265625 -28.640625 C 58.648438 -28.640625 55.113281 -29.019531 51.65625 -29.78125 C 49.851562 -30.226562 48.273438 -30.453125 46.921875 -30.453125 C 43.304688 -30.453125 40.675781 -28.570312 39.03125 -24.8125 C 34.664062 -15.1875 27.742188 -7.289062 18.265625 -1.125 C 17.066406 -0.375 15.675781 0.335938 14.09375 1.015625 C 12.519531 1.691406 10.828125 2.03125 9.015625 2.03125 C 6.765625 2.03125 4.585938 1.351562 2.484375 0 C -0.523438 -1.957031 -2.253906 -4.363281 -2.703125 -7.21875 C -3.160156 -10.070312 -3.3125 -13.003906 -3.15625 -16.015625 C -2.25 -31.359375 3.765625 -44.742188 14.890625 -56.171875 C 16.242188 -57.523438 17.597656 -58.878906 18.953125 -60.234375 C 20.304688 -61.585938 21.660156 -62.941406 23.015625 -64.296875 C 25.265625 -66.242188 27.742188 -67.21875 30.453125 -67.21875 C 32.253906 -67.21875 34.054688 -66.84375 35.859375 -66.09375 C 40.078125 -64.132812 42.9375 -60.300781 44.4375 -54.59375 C 45.789062 -49.78125 45.867188 -45.117188 44.671875 -40.609375 C 44.066406 -38.046875 44.289062 -36.164062 45.34375 -34.96875 C 46.539062 -33.613281 48.722656 -32.859375 51.890625 -32.703125 C 53.835938 -32.703125 55.710938 -32.703125 57.515625 -32.703125 C 61.878906 -32.703125 65.867188 -33.003906 69.484375 -33.609375 C 70.234375 -33.609375 70.984375 -33.757812 71.734375 -34.0625 C 72.484375 -34.363281 73.234375 -34.738281 73.984375 -35.1875 C 74.890625 -35.488281 75.832031 -35.828125 76.8125 -36.203125 C 77.789062 -36.578125 78.804688 -36.765625 79.859375 -36.765625 C 80.304688 -36.765625 80.679688 -36.691406 80.984375 -36.546875 Z M 34.28125 -34.28125 C 34.28125 -34.738281 34.28125 -35.191406 34.28125 -35.640625 C 33.832031 -36.390625 33.378906 -36.988281 32.921875 -37.4375 C 32.472656 -37.894531 32.023438 -38.347656 31.578125 -38.796875 C 30.523438 -39.847656 29.472656 -40.863281 28.421875 -41.84375 C 27.367188 -42.820312 26.242188 -43.835938 25.046875 -44.890625 C 24.742188 -45.035156 24.289062 -45.488281 23.6875 -46.25 C 23.082031 -47 22.441406 -47.671875 21.765625 -48.265625 C 21.085938 -48.867188 20.375 -49.171875 19.625 -49.171875 C 18.71875 -49.171875 17.890625 -48.722656 17.140625 -47.828125 C 12.785156 -41.660156 9.210938 -35.566406 6.421875 -29.546875 C 3.640625 -23.535156 2.175781 -16.921875 2.03125 -9.703125 C 2.03125 -7.296875 2.707031 -5.414062 4.0625 -4.0625 C 4.957031 -3.3125 6.082031 -2.9375 7.4375 -2.9375 C 8.488281 -2.9375 9.617188 -3.234375 10.828125 -3.828125 C 17.296875 -6.992188 22.257812 -11.28125 25.71875 -16.6875 C 29.175781 -22.101562 31.957031 -27.289062 34.0625 -32.25 C 34.207031 -32.550781 34.28125 -33.226562 34.28125 -34.28125 Z M 36.09375 -43.3125 C 36.539062 -45.269531 36.765625 -47.257812 36.765625 -49.28125 C 36.765625 -51.3125 35.710938 -53.304688 33.609375 -55.265625 C 33.003906 -56.015625 32.175781 -56.390625 31.125 -56.390625 C 30.070312 -56.390625 29.054688 -55.9375 28.078125 -55.03125 C 27.109375 -54.132812 26.472656 -53.3125 26.171875 -52.5625 C 25.421875 -50.300781 25.71875 -48.378906 27.0625 -46.796875 C 28.414062 -45.222656 29.921875 -43.757812 31.578125 -42.40625 C 32.023438 -42.101562 32.515625 -41.765625 33.046875 -41.390625 C 33.578125 -41.015625 34.066406 -40.601562 34.515625 -40.15625 L 35.421875 -39.25 L 35.640625 -40.15625 C 35.640625 -40.757812 35.710938 -41.320312 35.859375 -41.84375 C 36.015625 -42.375 36.09375 -42.863281 36.09375 -43.3125 Z M 36.09375 -43.3125 "/></g></g></g><g fill="#a17e55" fill-opacity="1"><g transform="translate(949.678541, 1179.367565)"><g><path d="M 90.90625 -33.609375 C 91.207031 -33.160156 91.242188 -32.519531 91.015625 -31.6875 C 90.796875 -30.863281 90.304688 -30.148438 89.546875 -29.546875 C 83.234375 -24.429688 76.503906 -19.394531 69.359375 -14.4375 C 62.222656 -9.476562 54.519531 -4.96875 46.25 -0.90625 C 37.976562 3.15625 29.03125 6.238281 19.40625 8.34375 C 16.695312 8.945312 14.140625 9.25 11.734375 9.25 C 5.710938 9.25 0.445312 7.144531 -4.0625 2.9375 C -10.53125 -3.082031 -12.109375 -10.453125 -8.796875 -19.171875 C -0.078125 -42.035156 16.613281 -59.484375 41.28125 -71.515625 C 44.132812 -73.015625 46.992188 -73.765625 49.859375 -73.765625 C 54.367188 -73.765625 58.273438 -71.8125 61.578125 -67.90625 C 63.984375 -65.34375 65.300781 -62.742188 65.53125 -60.109375 C 65.757812 -57.484375 65.421875 -55.039062 64.515625 -52.78125 C 63.609375 -50.53125 62.628906 -48.726562 61.578125 -47.375 C 60.378906 -45.414062 58.988281 -43.722656 57.40625 -42.296875 C 55.832031 -40.867188 54.367188 -39.703125 53.015625 -38.796875 L 52.5625 -38.34375 C 52.113281 -38.039062 51.550781 -37.625 50.875 -37.09375 C 50.195312 -36.570312 49.554688 -36.3125 48.953125 -36.3125 C 48.347656 -36.46875 47.894531 -36.695312 47.59375 -37 C 47.144531 -37.75 47.332031 -38.945312 48.15625 -40.59375 C 48.988281 -42.25 50.039062 -43.941406 51.3125 -45.671875 C 52.59375 -47.410156 53.6875 -48.878906 54.59375 -50.078125 C 56.394531 -52.179688 57.367188 -53.457031 57.515625 -53.90625 C 57.515625 -54.363281 57.664062 -54.894531 57.96875 -55.5 C 58.425781 -56.550781 58.726562 -57.75 58.875 -59.09375 C 59.019531 -60.445312 58.34375 -61.800781 56.84375 -63.15625 C 55.34375 -64.363281 53.765625 -64.96875 52.109375 -64.96875 C 50.609375 -64.96875 48.878906 -64.441406 46.921875 -63.390625 C 25.410156 -51.960938 9.617188 -35.117188 -0.453125 -12.859375 C -2.859375 -7.441406 -2.109375 -3.082031 1.796875 0.21875 C 4.660156 2.78125 8.347656 4.0625 12.859375 4.0625 C 14.054688 4.0625 15.257812 3.984375 16.46875 3.828125 C 24.738281 2.929688 32.253906 0.941406 39.015625 -2.140625 C 45.785156 -5.222656 51.65625 -8.269531 56.625 -11.28125 C 61.582031 -14.132812 67.144531 -17.816406 73.3125 -22.328125 C 74.21875 -22.929688 75.082031 -23.570312 75.90625 -24.25 C 76.726562 -24.925781 77.519531 -25.566406 78.28125 -26.171875 C 79.78125 -27.523438 81.359375 -28.800781 83.015625 -30 C 84.671875 -31.207031 86.398438 -32.257812 88.203125 -33.15625 C 88.953125 -33.613281 89.628906 -33.84375 90.234375 -33.84375 C 90.535156 -33.84375 90.757812 -33.765625 90.90625 -33.609375 Z M 90.90625 -33.609375 "/></g></g></g><g fill="#a17e55" fill-opacity="1"><g transform="translate(1063.593622, 1179.367565)"><g><path d="M 120.90625 -36.765625 C 121.363281 -36.460938 121.664062 -36.085938 121.8125 -35.640625 C 121.957031 -35.191406 121.804688 -34.664062 121.359375 -34.0625 C 120.910156 -33.457031 120.457031 -32.929688 120 -32.484375 L 119.328125 -31.8125 C 107.296875 -18.269531 94.585938 -8.078125 81.203125 -1.234375 C 67.816406 5.597656 53.082031 9.316406 37 9.921875 C 35.644531 9.921875 34.515625 9.921875 33.609375 9.921875 C 23.378906 9.921875 14.359375 7.890625 6.546875 3.828125 C 3.984375 2.628906 1.953125 2.03125 0.453125 2.03125 C -1.046875 2.03125 -2.171875 2.554688 -2.921875 3.609375 C -3.679688 4.660156 -4.363281 6.015625 -4.96875 7.671875 C -9.320312 20.148438 -14.660156 34.4375 -20.984375 50.53125 L -21.65625 52.328125 C -22.257812 53.984375 -22.9375 55.597656 -23.6875 57.171875 C -24.4375 58.753906 -25.488281 59.546875 -26.84375 59.546875 C -27.59375 59.546875 -28.269531 59.394531 -28.875 59.09375 C -31.125 57.894531 -32.132812 56.203125 -31.90625 54.015625 C -31.6875 51.835938 -31.128906 49.472656 -30.234375 46.921875 L -29.546875 45.109375 C -28.046875 40.753906 -26.503906 36.359375 -24.921875 31.921875 C -23.347656 27.484375 -21.734375 23.007812 -20.078125 18.5 L -16.6875 9.25 C -16.238281 8.34375 -15.828125 7.398438 -15.453125 6.421875 C -15.078125 5.453125 -14.664062 4.515625 -14.21875 3.609375 C -12.863281 0.296875 -11.65625 -3.085938 -10.59375 -6.546875 C -9.539062 -10.003906 -9.316406 -13.835938 -9.921875 -18.046875 C -10.222656 -20.453125 -9.921875 -22.554688 -9.015625 -24.359375 C -8.117188 -26.160156 -7.144531 -27.585938 -6.09375 -28.640625 C 0.976562 -36.316406 6.734375 -44.96875 11.171875 -54.59375 C 15.609375 -64.21875 19.929688 -73.84375 24.140625 -83.46875 C 28.492188 -93.6875 33.378906 -103.722656 38.796875 -113.578125 C 44.210938 -123.429688 49.628906 -133.171875 55.046875 -142.796875 C 57.742188 -147.453125 60.484375 -152.109375 63.265625 -156.765625 C 66.054688 -161.429688 68.953125 -166.019531 71.953125 -170.53125 C 72.710938 -171.582031 73.578125 -173.085938 74.546875 -175.046875 C 75.523438 -177.003906 76.921875 -177.984375 78.734375 -177.984375 C 79.484375 -177.984375 80.382812 -177.53125 81.4375 -176.625 C 82.789062 -175.570312 83.617188 -174.445312 83.921875 -173.25 C 84.515625 -170.6875 83.757812 -168.539062 81.65625 -166.8125 C 79.550781 -165.082031 77.820312 -163.46875 76.46875 -161.96875 C 73.007812 -158.207031 69.703125 -154.070312 66.546875 -149.5625 C 61.578125 -142.34375 57.140625 -134.671875 53.234375 -126.546875 C 49.328125 -118.429688 45.566406 -110.3125 41.953125 -102.1875 C 40.148438 -98.28125 38.304688 -94.367188 36.421875 -90.453125 C 34.546875 -86.546875 32.707031 -82.640625 30.90625 -78.734375 C 29.851562 -76.617188 28.835938 -74.472656 27.859375 -72.296875 C 26.878906 -70.117188 26.015625 -67.976562 25.265625 -65.875 C 24.960938 -65.113281 24.582031 -63.753906 24.125 -61.796875 C 23.675781 -59.847656 23.148438 -58.007812 22.546875 -56.28125 C 21.953125 -54.550781 21.28125 -53.535156 20.53125 -53.234375 L 33.390625 -59.328125 C 37.742188 -61.429688 41.988281 -63.457031 46.125 -65.40625 C 50.257812 -67.363281 54.359375 -69.25 58.421875 -71.0625 C 60.078125 -71.8125 61.878906 -72.375 63.828125 -72.75 C 65.785156 -73.125 67.671875 -73.460938 69.484375 -73.765625 C 70.234375 -73.910156 70.945312 -74.019531 71.625 -74.09375 C 72.300781 -74.175781 73.015625 -74.21875 73.765625 -74.21875 C 77.367188 -74.21875 80 -72.710938 81.65625 -69.703125 C 82.40625 -68.503906 82.664062 -67.035156 82.4375 -65.296875 C 82.21875 -63.566406 81.804688 -62.253906 81.203125 -61.359375 C 80.453125 -60.453125 79.628906 -60 78.734375 -60 C 78.128906 -60.15625 77.828125 -60.609375 77.828125 -61.359375 L 77.828125 -62.03125 C 77.671875 -62.9375 77.519531 -63.613281 77.375 -64.0625 C 77.070312 -64.96875 76.429688 -65.679688 75.453125 -66.203125 C 74.472656 -66.734375 73.535156 -67.070312 72.640625 -67.21875 C 70.828125 -67.21875 69.054688 -66.84375 67.328125 -66.09375 C 65.597656 -65.34375 63.910156 -64.515625 62.265625 -63.609375 C 61.660156 -63.304688 61.09375 -63.039062 60.5625 -62.8125 C 60.039062 -62.59375 59.550781 -62.410156 59.09375 -62.265625 C 53.988281 -60.003906 49.03125 -57.75 44.21875 -55.5 C 35.1875 -51.132812 26.238281 -46.171875 17.375 -40.609375 C 14.96875 -39.097656 13.195312 -37.175781 12.0625 -34.84375 C 10.9375 -32.519531 9.921875 -30.15625 9.015625 -27.75 C 8.722656 -26.539062 8.347656 -25.375 7.890625 -24.25 C 7.441406 -23.125 6.914062 -22.035156 6.3125 -20.984375 C 6.007812 -20.378906 5.742188 -19.773438 5.515625 -19.171875 C 5.296875 -18.566406 5.113281 -17.96875 4.96875 -17.375 C 4.664062 -16.613281 4.4375 -16.007812 4.28125 -15.5625 C 1.425781 -8.34375 1.128906 -3.15625 3.390625 0 C 5.796875 3.15625 11.660156 5.335938 20.984375 6.546875 C 25.335938 7.140625 29.625 7.4375 33.84375 7.4375 C 49.925781 7.4375 65.113281 3.453125 79.40625 -4.515625 C 93.238281 -12.179688 105.34375 -22.101562 115.71875 -34.28125 C 115.875 -34.582031 116.175781 -34.960938 116.625 -35.421875 C 116.925781 -36.015625 117.300781 -36.535156 117.75 -36.984375 C 118.195312 -37.441406 118.648438 -37.671875 119.109375 -37.671875 C 119.554688 -37.671875 120.15625 -37.367188 120.90625 -36.765625 Z M 120.90625 -36.765625 "/></g></g></g><g fill="#a17e55" fill-opacity="1"><g transform="translate(1206.1566, 1179.367565)"><g/></g></g><g fill="#a17e55" fill-opacity="1"><g transform="translate(1301.574669, 1179.367565)"><g><path d="M 119.5625 -37.890625 C 119.851562 -37.597656 119.734375 -37.035156 119.203125 -36.203125 C 118.679688 -35.378906 118.195312 -34.738281 117.75 -34.28125 C 116.25 -33.082031 114.554688 -31.992188 112.671875 -31.015625 C 110.796875 -30.035156 108.878906 -29.097656 106.921875 -28.203125 C 106.023438 -27.742188 105.125 -27.25 104.21875 -26.71875 C 103.3125 -26.195312 102.484375 -25.710938 101.734375 -25.265625 C 98.722656 -23.609375 95.75 -21.953125 92.8125 -20.296875 C 89.882812 -18.648438 86.992188 -16.921875 84.140625 -15.109375 C 71.660156 -7.441406 60.757812 0.222656 51.4375 7.890625 C 48.125 10.753906 45.566406 14.066406 43.765625 17.828125 L 38.34375 29.328125 C 33.53125 39.253906 28.640625 49.328125 23.671875 59.546875 C 18.710938 69.773438 13.300781 79.703125 7.4375 89.328125 C 5.03125 93.085938 2.140625 97.257812 -1.234375 101.84375 C -4.617188 106.4375 -8.71875 110.6875 -13.53125 114.59375 C -14.582031 115.34375 -15.75 116.128906 -17.03125 116.953125 C -18.3125 117.785156 -19.78125 118.351562 -21.4375 118.65625 C -22.632812 119.101562 -23.757812 119.328125 -24.8125 119.328125 C -27.070312 119.328125 -29.023438 118.5 -30.671875 116.84375 C -32.023438 115.644531 -32.773438 114.40625 -32.921875 113.125 C -33.078125 111.84375 -33.082031 110.378906 -32.9375 108.734375 C -32.476562 105.273438 -31.609375 102.078125 -30.328125 99.140625 C -29.054688 96.210938 -27.742188 93.394531 -26.390625 90.6875 C -14.804688 68.726562 2.035156 47.445312 24.140625 26.84375 C 31.203125 20.226562 36.691406 12.707031 40.609375 4.28125 C 43.160156 -0.976562 45.789062 -6.238281 48.5 -11.5 C 51.207031 -16.769531 53.914062 -22.035156 56.625 -27.296875 L 64.0625 -42.1875 L 62.03125 -41.5 C 57.070312 -39.550781 52.597656 -37.109375 48.609375 -34.171875 C 44.628906 -31.242188 40.832031 -28.203125 37.21875 -25.046875 C 35.71875 -23.691406 34.175781 -22.375 32.59375 -21.09375 C 31.019531 -19.8125 29.40625 -18.570312 27.75 -17.375 L 24.140625 -14.65625 C 21.128906 -12.25 17.96875 -9.957031 14.65625 -7.78125 C 11.351562 -5.601562 7.742188 -3.835938 3.828125 -2.484375 C 2.179688 -2.023438 0.679688 -1.796875 -0.671875 -1.796875 C -2.929688 -1.796875 -5.113281 -2.625 -7.21875 -4.28125 C -10.675781 -6.84375 -12.179688 -10.378906 -11.734375 -14.890625 C -10.828125 -21.804688 -8.492188 -27.671875 -4.734375 -32.484375 C -0.972656 -37.296875 3.160156 -41.65625 7.671875 -45.5625 C 8.421875 -46.3125 9.320312 -46.6875 10.375 -46.6875 C 11.425781 -46.6875 12.476562 -46.238281 13.53125 -45.34375 C 14.582031 -44.289062 15.070312 -43.347656 15 -42.515625 C 14.925781 -41.691406 14.515625 -40.753906 13.765625 -39.703125 C 13.003906 -38.648438 12.285156 -37.597656 11.609375 -36.546875 C 10.941406 -35.492188 10.226562 -34.441406 9.46875 -33.390625 C 8.414062 -31.878906 7.363281 -30.410156 6.3125 -28.984375 C 5.257812 -27.554688 4.285156 -26.09375 3.390625 -24.59375 C 3.085938 -24.132812 2.742188 -23.640625 2.359375 -23.109375 C 1.984375 -22.585938 1.570312 -22.101562 1.125 -21.65625 C 0.226562 -20.445312 -0.671875 -19.164062 -1.578125 -17.8125 C -2.484375 -16.46875 -3.085938 -14.96875 -3.390625 -13.3125 C -3.835938 -11.351562 -3.609375 -9.847656 -2.703125 -8.796875 C -1.648438 -7.742188 -0.0703125 -7.21875 2.03125 -7.21875 C 3.082031 -7.21875 4.207031 -7.328125 5.40625 -7.546875 C 6.613281 -7.773438 7.59375 -8.039062 8.34375 -8.34375 C 10.144531 -9.09375 11.796875 -9.957031 13.296875 -10.9375 C 14.804688 -11.914062 16.316406 -12.929688 17.828125 -13.984375 C 21.285156 -16.546875 24.742188 -19.140625 28.203125 -21.765625 C 31.660156 -24.398438 35.039062 -26.992188 38.34375 -29.546875 C 41.050781 -31.648438 43.796875 -33.789062 46.578125 -35.96875 C 49.359375 -38.15625 52.101562 -40.226562 54.8125 -42.1875 C 55.269531 -42.488281 55.796875 -42.9375 56.390625 -43.53125 C 57.296875 -44.289062 58.238281 -45.003906 59.21875 -45.671875 C 60.195312 -46.347656 61.285156 -46.6875 62.484375 -46.6875 C 63.691406 -46.6875 65.046875 -46.085938 66.546875 -44.890625 C 68.203125 -43.390625 68.878906 -41.8125 68.578125 -40.15625 C 68.273438 -38.5 67.75 -36.84375 67 -35.1875 C 66.539062 -34.289062 66.238281 -33.613281 66.09375 -33.15625 C 65.488281 -31.351562 64.882812 -29.585938 64.28125 -27.859375 C 63.6875 -26.128906 63.015625 -24.4375 62.265625 -22.78125 C 61.210938 -19.925781 60.15625 -17.03125 59.09375 -14.09375 C 58.039062 -11.164062 57.066406 -8.125 56.171875 -4.96875 L 57.515625 -4.28125 C 57.671875 -4.882812 58.3125 -5.488281 59.4375 -6.09375 C 60.5625 -6.695312 61.578125 -7.144531 62.484375 -7.4375 C 63.535156 -8.039062 64.210938 -8.421875 64.515625 -8.578125 L 72.1875 -13.3125 C 79.707031 -18.125 87.375 -22.5625 95.1875 -26.625 C 99.25 -28.726562 103.238281 -30.679688 107.15625 -32.484375 C 107.601562 -32.785156 108.125 -33.085938 108.71875 -33.390625 C 109.320312 -33.691406 109.851562 -33.988281 110.3125 -34.28125 C 111.8125 -34.882812 113.238281 -35.523438 114.59375 -36.203125 C 115.945312 -36.878906 117.375 -37.441406 118.875 -37.890625 C 119.175781 -37.890625 119.40625 -37.890625 119.5625 -37.890625 Z M -18.953125 109.859375 C -9.023438 99.628906 -0.828125 88.125 5.640625 75.34375 C 12.109375 62.5625 18.195312 49.703125 23.90625 36.765625 L 22.78125 35.421875 C 8.34375 47.597656 -4.210938 61.128906 -14.890625 76.015625 C -17.597656 79.929688 -20.226562 84.03125 -22.78125 88.3125 C -25.34375 92.601562 -27.296875 97.378906 -28.640625 102.640625 C -28.796875 103.085938 -28.945312 103.6875 -29.09375 104.4375 C -29.550781 105.789062 -29.851562 107.21875 -30 108.71875 C -30.15625 110.226562 -29.40625 111.660156 -27.75 113.015625 C -26.695312 113.765625 -25.644531 114.140625 -24.59375 114.140625 C -23.539062 114.140625 -22.632812 113.800781 -21.875 113.125 C -21.125 112.445312 -20.445312 111.734375 -19.84375 110.984375 C -19.394531 110.378906 -19.097656 110.003906 -18.953125 109.859375 Z M -18.953125 109.859375 "/></g></g></g><g fill="#a17e55" fill-opacity="1"><g transform="translate(1442.107452, 1179.367565)"><g><path d="M 80.984375 -36.546875 C 82.179688 -36.390625 82.859375 -36.160156 83.015625 -35.859375 C 83.160156 -34.960938 82.628906 -34.132812 81.421875 -33.375 C 80.222656 -32.625 78.875 -31.984375 77.375 -31.453125 C 75.875 -30.929688 74.742188 -30.597656 73.984375 -30.453125 C 70.078125 -29.242188 66.171875 -28.640625 62.265625 -28.640625 C 58.648438 -28.640625 55.113281 -29.019531 51.65625 -29.78125 C 49.851562 -30.226562 48.273438 -30.453125 46.921875 -30.453125 C 43.304688 -30.453125 40.675781 -28.570312 39.03125 -24.8125 C 34.664062 -15.1875 27.742188 -7.289062 18.265625 -1.125 C 17.066406 -0.375 15.675781 0.335938 14.09375 1.015625 C 12.519531 1.691406 10.828125 2.03125 9.015625 2.03125 C 6.765625 2.03125 4.585938 1.351562 2.484375 0 C -0.523438 -1.957031 -2.253906 -4.363281 -2.703125 -7.21875 C -3.160156 -10.070312 -3.3125 -13.003906 -3.15625 -16.015625 C -2.25 -31.359375 3.765625 -44.742188 14.890625 -56.171875 C 16.242188 -57.523438 17.597656 -58.878906 18.953125 -60.234375 C 20.304688 -61.585938 21.660156 -62.941406 23.015625 -64.296875 C 25.265625 -66.242188 27.742188 -67.21875 30.453125 -67.21875 C 32.253906 -67.21875 34.054688 -66.84375 35.859375 -66.09375 C 40.078125 -64.132812 42.9375 -60.300781 44.4375 -54.59375 C 45.789062 -49.78125 45.867188 -45.117188 44.671875 -40.609375 C 44.066406 -38.046875 44.289062 -36.164062 45.34375 -34.96875 C 46.539062 -33.613281 48.722656 -32.859375 51.890625 -32.703125 C 53.835938 -32.703125 55.710938 -32.703125 57.515625 -32.703125 C 61.878906 -32.703125 65.867188 -33.003906 69.484375 -33.609375 C 70.234375 -33.609375 70.984375 -33.757812 71.734375 -34.0625 C 72.484375 -34.363281 73.234375 -34.738281 73.984375 -35.1875 C 74.890625 -35.488281 75.832031 -35.828125 76.8125 -36.203125 C 77.789062 -36.578125 78.804688 -36.765625 79.859375 -36.765625 C 80.304688 -36.765625 80.679688 -36.691406 80.984375 -36.546875 Z M 34.28125 -34.28125 C 34.28125 -34.738281 34.28125 -35.191406 34.28125 -35.640625 C 33.832031 -36.390625 33.378906 -36.988281 32.921875 -37.4375 C 32.472656 -37.894531 32.023438 -38.347656 31.578125 -38.796875 C 30.523438 -39.847656 29.472656 -40.863281 28.421875 -41.84375 C 27.367188 -42.820312 26.242188 -43.835938 25.046875 -44.890625 C 24.742188 -45.035156 24.289062 -45.488281 23.6875 -46.25 C 23.082031 -47 22.441406 -47.671875 21.765625 -48.265625 C 21.085938 -48.867188 20.375 -49.171875 19.625 -49.171875 C 18.71875 -49.171875 17.890625 -48.722656 17.140625 -47.828125 C 12.785156 -41.660156 9.210938 -35.566406 6.421875 -29.546875 C 3.640625 -23.535156 2.175781 -16.921875 2.03125 -9.703125 C 2.03125 -7.296875 2.707031 -5.414062 4.0625 -4.0625 C 4.957031 -3.3125 6.082031 -2.9375 7.4375 -2.9375 C 8.488281 -2.9375 9.617188 -3.234375 10.828125 -3.828125 C 17.296875 -6.992188 22.257812 -11.28125 25.71875 -16.6875 C 29.175781 -22.101562 31.957031 -27.289062 34.0625 -32.25 C 34.207031 -32.550781 34.28125 -33.226562 34.28125 -34.28125 Z M 36.09375 -43.3125 C 36.539062 -45.269531 36.765625 -47.257812 36.765625 -49.28125 C 36.765625 -51.3125 35.710938 -53.304688 33.609375 -55.265625 C 33.003906 -56.015625 32.175781 -56.390625 31.125 -56.390625 C 30.070312 -56.390625 29.054688 -55.9375 28.078125 -55.03125 C 27.109375 -54.132812 26.472656 -53.3125 26.171875 -52.5625 C 25.421875 -50.300781 25.71875 -48.378906 27.0625 -46.796875 C 28.414062 -45.222656 29.921875 -43.757812 31.578125 -42.40625 C 32.023438 -42.101562 32.515625 -41.765625 33.046875 -41.390625 C 33.578125 -41.015625 34.066406 -40.601562 34.515625 -40.15625 L 35.421875 -39.25 L 35.640625 -40.15625 C 35.640625 -40.757812 35.710938 -41.320312 35.859375 -41.84375 C 36.015625 -42.375 36.09375 -42.863281 36.09375 -43.3125 Z M 36.09375 -43.3125 "/></g></g></g><g fill="#a17e55" fill-opacity="1"><g transform="translate(1546.322849, 1179.367565)"><g><path d="M 127.21875 -35.640625 C 127.820312 -35.191406 128.125 -34.738281 128.125 -34.28125 C 128.28125 -33.832031 127.832031 -33.082031 126.78125 -32.03125 C 119.851562 -25.257812 112.21875 -18.789062 103.875 -12.625 C 95.53125 -6.46875 85.796875 -1.882812 74.671875 1.125 C 72.109375 1.875 69.625 2.25 67.21875 2.25 C 62.863281 2.25 59.253906 0.898438 56.390625 -1.796875 C 51.878906 -5.554688 49.097656 -12.023438 48.046875 -21.203125 L 47.828125 -22.78125 L 41.28125 -17.375 C 39.175781 -15.5625 37.070312 -13.753906 34.96875 -11.953125 C 32.863281 -10.148438 30.753906 -8.421875 28.640625 -6.765625 C 23.234375 -2.398438 17.367188 0.753906 11.046875 2.703125 C 9.097656 3.304688 7.445312 3.609375 6.09375 3.609375 C 3.382812 3.609375 0.976562 2.707031 -1.125 0.90625 C -4.882812 -2.25 -6.460938 -6.085938 -5.859375 -10.609375 C -3.753906 -29.097656 4.363281 -47.441406 18.5 -65.640625 C 19.550781 -67.148438 20.675781 -67.90625 21.875 -67.90625 C 22.78125 -67.90625 23.6875 -67.523438 24.59375 -66.765625 C 25.644531 -65.867188 26.09375 -64.96875 25.9375 -64.0625 C 25.789062 -63.15625 25.414062 -62.101562 24.8125 -60.90625 C 23.757812 -58.5 22.59375 -56.164062 21.3125 -53.90625 C 20.039062 -51.65625 18.726562 -49.328125 17.375 -46.921875 C 14.0625 -40.898438 10.898438 -34.769531 7.890625 -28.53125 C 4.890625 -22.289062 3.085938 -15.5625 2.484375 -8.34375 C 2.484375 -7.738281 2.519531 -7.0625 2.59375 -6.3125 C 2.664062 -5.5625 3.003906 -4.882812 3.609375 -4.28125 C 4.359375 -3.53125 5.1875 -3.082031 6.09375 -2.9375 C 6.539062 -2.9375 6.988281 -2.9375 7.4375 -2.9375 C 9.09375 -2.9375 10.707031 -3.273438 12.28125 -3.953125 C 13.863281 -4.628906 15.332031 -5.34375 16.6875 -6.09375 C 35.34375 -15.71875 48.28125 -28.347656 55.5 -43.984375 C 55.789062 -44.441406 56.085938 -45.269531 56.390625 -46.46875 C 56.847656 -47.820312 57.375 -49.097656 57.96875 -50.296875 C 58.570312 -51.503906 59.476562 -52.109375 60.6875 -52.109375 C 61.582031 -52.109375 62.554688 -51.734375 63.609375 -50.984375 C 64.960938 -50.234375 65.863281 -49.40625 66.3125 -48.5 C 66.769531 -47.445312 66.8125 -46.394531 66.4375 -45.34375 C 66.0625 -44.289062 65.570312 -43.238281 64.96875 -42.1875 C 64.8125 -41.582031 64.617188 -41.050781 64.390625 -40.59375 C 64.171875 -40.144531 63.988281 -39.695312 63.84375 -39.25 C 63.382812 -38.050781 62.929688 -36.8125 62.484375 -35.53125 C 62.035156 -34.25 61.582031 -33.007812 61.125 -31.8125 C 60.226562 -29.25 59.363281 -26.613281 58.53125 -23.90625 C 57.707031 -21.195312 57.144531 -18.34375 56.84375 -15.34375 C 56.394531 -11.125 57.144531 -7.960938 59.09375 -5.859375 C 61.050781 -3.910156 64.4375 -2.859375 69.25 -2.703125 C 74.363281 -2.703125 78.910156 -3.566406 82.890625 -5.296875 C 86.878906 -7.023438 90.53125 -8.941406 93.84375 -11.046875 C 106.625 -18.566406 116.625 -26.3125 123.84375 -34.28125 C 123.988281 -34.4375 124.210938 -34.738281 124.515625 -35.1875 C 125.117188 -35.9375 125.570312 -36.3125 125.875 -36.3125 C 126.175781 -36.3125 126.625 -36.085938 127.21875 -35.640625 Z M 127.21875 -35.640625 "/></g></g></g><g fill="#a17e55" fill-opacity="1"><g transform="translate(1695.653144, 1179.367565)"><g><path d="M 98.578125 -34.96875 C 99.484375 -34.8125 100.007812 -34.582031 100.15625 -34.28125 C 100.300781 -33.832031 100 -33.304688 99.25 -32.703125 C 96.539062 -31.203125 93.535156 -30.453125 90.234375 -30.453125 C 85.867188 -30.453125 81.429688 -31.578125 76.921875 -33.828125 C 72.410156 -36.085938 68.578125 -39.023438 65.421875 -42.640625 C 62.554688 -45.796875 60.375 -48.125 58.875 -49.625 C 57.375 -51.132812 55.796875 -51.890625 54.140625 -51.890625 C 53.085938 -51.890625 51.882812 -51.472656 50.53125 -50.640625 C 49.175781 -49.816406 47.519531 -48.726562 45.5625 -47.375 C 38.34375 -42.257812 31.578125 -36.65625 25.265625 -30.5625 C 18.953125 -24.476562 12.863281 -18.351562 7 -12.1875 L 1.359375 -6.546875 C 1.203125 -6.242188 0.820312 -5.71875 0.21875 -4.96875 C -0.226562 -4.363281 -0.710938 -3.796875 -1.234375 -3.265625 C -1.765625 -2.742188 -2.40625 -2.484375 -3.15625 -2.484375 C -4.0625 -2.484375 -5.191406 -2.929688 -6.546875 -3.828125 C -8.191406 -5.035156 -8.941406 -6.273438 -8.796875 -7.546875 C -8.648438 -8.828125 -8.425781 -10.070312 -8.125 -11.28125 L -7.671875 -12.1875 C -1.648438 -31.28125 5.71875 -48.117188 14.4375 -62.703125 L 14.890625 -63.15625 C 15.335938 -64.0625 15.9375 -64.960938 16.6875 -65.859375 C 17.445312 -66.765625 18.273438 -67.21875 19.171875 -67.21875 C 19.773438 -67.21875 20.453125 -66.992188 21.203125 -66.546875 C 22.253906 -65.796875 22.929688 -65.046875 23.234375 -64.296875 C 23.535156 -63.535156 23.535156 -62.742188 23.234375 -61.921875 C 22.929688 -61.097656 22.554688 -60.304688 22.109375 -59.546875 C 21.804688 -58.648438 21.582031 -58.050781 21.4375 -57.75 L 19.625 -53.46875 C 18.71875 -51.207031 17.773438 -48.910156 16.796875 -46.578125 C 15.828125 -44.242188 14.816406 -41.953125 13.765625 -39.703125 C 13.160156 -38.203125 12.484375 -36.695312 11.734375 -35.1875 C 10.984375 -33.6875 10.304688 -32.179688 9.703125 -30.671875 C 9.546875 -30.671875 9.242188 -30.066406 8.796875 -28.859375 C 8.347656 -27.660156 7.9375 -26.382812 7.5625 -25.03125 C 7.1875 -23.6875 7.144531 -22.785156 7.4375 -22.328125 L 7.890625 -21.875 L 8.34375 -21.875 C 9.851562 -22.175781 11.132812 -22.78125 12.1875 -23.6875 C 13.238281 -24.59375 14.210938 -25.570312 15.109375 -26.625 C 15.410156 -26.914062 15.75 -27.25 16.125 -27.625 C 16.5 -28.007812 16.914062 -28.425781 17.375 -28.875 L 26.84375 -36.765625 C 29.851562 -39.328125 32.859375 -41.847656 35.859375 -44.328125 C 38.867188 -46.804688 41.878906 -49.25 44.890625 -51.65625 C 48.953125 -54.664062 52.035156 -56.171875 54.140625 -56.171875 C 56.097656 -56.171875 58.015625 -55.304688 59.890625 -53.578125 C 61.765625 -51.847656 64.132812 -49.253906 67 -45.796875 C 70.15625 -41.878906 73.800781 -38.832031 77.9375 -36.65625 C 82.070312 -34.476562 86.242188 -33.390625 90.453125 -33.390625 C 91.804688 -33.390625 93.160156 -33.539062 94.515625 -33.84375 C 94.960938 -33.84375 95.566406 -33.988281 96.328125 -34.28125 C 97.378906 -34.738281 98.128906 -34.96875 98.578125 -34.96875 Z M 98.578125 -34.96875 "/></g></g></g><g fill="#a17e55" fill-opacity="1"><g transform="translate(1818.816845, 1179.367565)"><g/></g></g><g fill="#a17e55" fill-opacity="1"><g transform="translate(1914.234822, 1179.367565)"><g><path d="M 78.5 -35.859375 C 78.945312 -35.566406 79.171875 -34.894531 79.171875 -33.84375 C 79.171875 -32.78125 78.53125 -31.796875 77.25 -30.890625 C 75.976562 -29.992188 74.96875 -29.242188 74.21875 -28.640625 C 71.65625 -26.390625 69.019531 -24.210938 66.3125 -22.109375 C 63.613281 -20.003906 60.910156 -17.972656 58.203125 -16.015625 C 52.484375 -11.953125 46.425781 -8.34375 40.03125 -5.1875 C 33.644531 -2.03125 26.84375 0.445312 19.625 2.25 C 16.613281 3.15625 13.453125 3.609375 10.140625 3.609375 C 6.835938 3.609375 3.53125 2.101562 0.21875 -0.90625 C -3.082031 -3.757812 -4.921875 -6.800781 -5.296875 -10.03125 C -5.671875 -13.269531 -5.410156 -16.394531 -4.515625 -19.40625 C -1.804688 -29.625 2.023438 -39.171875 6.984375 -48.046875 C 11.953125 -56.921875 17.894531 -65.117188 24.8125 -72.640625 C 25.5625 -73.691406 26.5 -74.664062 27.625 -75.5625 C 28.757812 -76.46875 30.300781 -76.171875 32.25 -74.671875 C 34.363281 -73.015625 35.039062 -71.546875 34.28125 -70.265625 C 33.53125 -68.984375 32.851562 -67.816406 32.25 -66.765625 C 27.445312 -59.097656 22.785156 -51.425781 18.265625 -43.75 C 13.753906 -36.082031 9.769531 -28.039062 6.3125 -19.625 C 5.707031 -18.125 4.953125 -16.546875 4.046875 -14.890625 C 3.148438 -13.234375 2.703125 -11.539062 2.703125 -9.8125 C 2.703125 -8.082031 3.53125 -6.390625 5.1875 -4.734375 C 7.894531 -1.878906 10.898438 -0.675781 14.203125 -1.125 C 17.515625 -1.570312 20.597656 -2.097656 23.453125 -2.703125 C 29.171875 -4.054688 34.507812 -6.085938 39.46875 -8.796875 C 44.4375 -11.503906 49.175781 -14.515625 53.6875 -17.828125 C 54.289062 -18.273438 55.796875 -19.550781 58.203125 -21.65625 C 60.609375 -23.757812 63.238281 -26.015625 66.09375 -28.421875 C 68.945312 -30.828125 71.578125 -32.78125 73.984375 -34.28125 C 76.390625 -35.789062 77.894531 -36.316406 78.5 -35.859375 Z M 42.1875 -85.265625 C 38.726562 -84.960938 36.546875 -86.539062 35.640625 -90 C 34.890625 -93.007812 35.191406 -95.15625 36.546875 -96.4375 C 37.898438 -97.71875 39.851562 -98.429688 42.40625 -98.578125 C 44.207031 -98.722656 45.785156 -98.34375 47.140625 -97.4375 C 48.492188 -96.539062 49.472656 -94.890625 50.078125 -92.484375 C 50.222656 -90.078125 49.546875 -88.347656 48.046875 -87.296875 C 46.546875 -86.242188 44.59375 -85.566406 42.1875 -85.265625 Z M 42.1875 -85.265625 "/></g></g></g><g fill="#a17e55" fill-opacity="1"><g transform="translate(2016.419933, 1179.367565)"><g><path d="M 124.296875 -37.890625 C 125.191406 -37.296875 125.71875 -36.695312 125.875 -36.09375 C 126.019531 -35.488281 125.90625 -34.921875 125.53125 -34.390625 C 125.15625 -33.867188 124.742188 -33.382812 124.296875 -32.9375 C 123.691406 -32.332031 123.316406 -31.878906 123.171875 -31.578125 C 110.679688 -12.328125 93.007812 3.757812 70.15625 16.6875 C 67.75 18.039062 64.664062 18.71875 60.90625 18.71875 L 60.453125 18.71875 C 56.691406 18.71875 53.835938 17.742188 51.890625 15.796875 C 49.773438 13.835938 48.71875 10.90625 48.71875 7 C 48.71875 3.53125 49.394531 0.40625 50.75 -2.375 C 52.101562 -5.15625 53.535156 -7.820312 55.046875 -10.375 L 57.296875 -13.984375 C 57.742188 -14.890625 58.226562 -15.789062 58.75 -16.6875 C 59.28125 -17.59375 59.773438 -18.5 60.234375 -19.40625 L 60.453125 -20.078125 C 60.753906 -20.679688 61.015625 -21.429688 61.234375 -22.328125 C 61.460938 -23.234375 61.050781 -24.210938 60 -25.265625 C 58.800781 -26.460938 57.375 -27.0625 55.71875 -27.0625 C 55.113281 -27.0625 54.4375 -26.914062 53.6875 -26.625 C 50.675781 -26.019531 47.703125 -25.300781 44.765625 -24.46875 C 41.835938 -23.644531 38.867188 -22.78125 35.859375 -21.875 C 32.109375 -20.519531 28.460938 -18.941406 24.921875 -17.140625 C 21.390625 -15.335938 17.96875 -13.457031 14.65625 -11.5 C 13.15625 -10.75 11.691406 -9.957031 10.265625 -9.125 C 8.835938 -8.300781 7.367188 -7.515625 5.859375 -6.765625 L 4.96875 -6.3125 C 4.363281 -5.863281 3.679688 -5.488281 2.921875 -5.1875 C 2.171875 -4.882812 1.421875 -4.734375 0.671875 -4.734375 C -0.679688 -4.734375 -2.109375 -5.335938 -3.609375 -6.546875 C -5.265625 -8.046875 -6.09375 -9.429688 -6.09375 -10.703125 C -6.09375 -11.984375 -5.941406 -13.300781 -5.640625 -14.65625 L -5.40625 -15.5625 C -2.707031 -27.894531 1.875 -38.875 8.34375 -48.5 L 8.796875 -49.171875 C 9.097656 -49.773438 9.472656 -50.335938 9.921875 -50.859375 C 10.378906 -51.390625 10.90625 -51.65625 11.5 -51.65625 C 11.957031 -51.65625 12.410156 -51.503906 12.859375 -51.203125 C 13.910156 -50.753906 14.585938 -50.15625 14.890625 -49.40625 C 15.640625 -47.894531 15.675781 -46.125 15 -44.09375 C 14.320312 -42.070312 13.609375 -40.382812 12.859375 -39.03125 C 12.410156 -38.125 12.1875 -37.519531 12.1875 -37.21875 L 4.28125 -16.6875 C 4.132812 -16.382812 3.984375 -15.894531 3.828125 -15.21875 C 3.679688 -14.550781 3.910156 -13.988281 4.515625 -13.53125 C 5.109375 -13.082031 5.859375 -12.859375 6.765625 -12.859375 C 7.671875 -12.859375 8.722656 -13.046875 9.921875 -13.421875 C 11.128906 -13.796875 11.957031 -14.132812 12.40625 -14.4375 C 13.15625 -14.738281 13.832031 -15.078125 14.4375 -15.453125 C 15.039062 -15.828125 15.640625 -16.238281 16.234375 -16.6875 C 16.992188 -17.289062 17.710938 -17.816406 18.390625 -18.265625 C 19.066406 -18.722656 19.78125 -19.101562 20.53125 -19.40625 C 22.9375 -20.601562 25.378906 -21.726562 27.859375 -22.78125 C 30.335938 -23.832031 32.859375 -24.882812 35.421875 -25.9375 C 41.585938 -28.5 47.375 -30.15625 52.78125 -30.90625 C 53.6875 -31.050781 54.515625 -31.125 55.265625 -31.125 C 59.171875 -31.125 62.253906 -29.847656 64.515625 -27.296875 C 67.066406 -24.441406 67.742188 -20.90625 66.546875 -16.6875 C 65.941406 -14.132812 65.148438 -11.65625 64.171875 -9.25 C 63.191406 -6.84375 62.253906 -4.4375 61.359375 -2.03125 C 60.753906 -0.675781 60.1875 0.675781 59.65625 2.03125 C 59.132812 3.382812 58.570312 4.738281 57.96875 6.09375 L 57.75 7 C 57.300781 7.75 57 8.648438 56.84375 9.703125 C 56.695312 10.753906 57.070312 11.726562 57.96875 12.625 C 59.175781 13.832031 60.53125 14.4375 62.03125 14.4375 C 62.632812 14.4375 63.234375 14.359375 63.828125 14.203125 C 64.429688 14.054688 65.035156 13.910156 65.640625 13.765625 C 72.710938 11.660156 78.878906 8.539062 84.140625 4.40625 C 89.398438 0.269531 94.140625 -3.90625 98.359375 -8.125 C 101.816406 -11.582031 105.535156 -15.453125 109.515625 -19.734375 C 113.503906 -24.023438 116.851562 -28.875 119.5625 -34.28125 L 120 -34.734375 C 120.300781 -35.484375 120.710938 -36.269531 121.234375 -37.09375 C 121.765625 -37.925781 122.410156 -38.34375 123.171875 -38.34375 C 123.460938 -38.34375 123.835938 -38.191406 124.296875 -37.890625 Z M 124.296875 -37.890625 "/></g></g></g><g fill="#a17e55" fill-opacity="1"><g transform="translate(2163.494451, 1179.367565)"><g><path d="M 124.296875 -37.890625 C 125.191406 -37.296875 125.71875 -36.695312 125.875 -36.09375 C 126.019531 -35.488281 125.90625 -34.921875 125.53125 -34.390625 C 125.15625 -33.867188 124.742188 -33.382812 124.296875 -32.9375 C 123.691406 -32.332031 123.316406 -31.878906 123.171875 -31.578125 C 110.679688 -12.328125 93.007812 3.757812 70.15625 16.6875 C 67.75 18.039062 64.664062 18.71875 60.90625 18.71875 L 60.453125 18.71875 C 56.691406 18.71875 53.835938 17.742188 51.890625 15.796875 C 49.773438 13.835938 48.71875 10.90625 48.71875 7 C 48.71875 3.53125 49.394531 0.40625 50.75 -2.375 C 52.101562 -5.15625 53.535156 -7.820312 55.046875 -10.375 L 57.296875 -13.984375 C 57.742188 -14.890625 58.226562 -15.789062 58.75 -16.6875 C 59.28125 -17.59375 59.773438 -18.5 60.234375 -19.40625 L 60.453125 -20.078125 C 60.753906 -20.679688 61.015625 -21.429688 61.234375 -22.328125 C 61.460938 -23.234375 61.050781 -24.210938 60 -25.265625 C 58.800781 -26.460938 57.375 -27.0625 55.71875 -27.0625 C 55.113281 -27.0625 54.4375 -26.914062 53.6875 -26.625 C 50.675781 -26.019531 47.703125 -25.300781 44.765625 -24.46875 C 41.835938 -23.644531 38.867188 -22.78125 35.859375 -21.875 C 32.109375 -20.519531 28.460938 -18.941406 24.921875 -17.140625 C 21.390625 -15.335938 17.96875 -13.457031 14.65625 -11.5 C 13.15625 -10.75 11.691406 -9.957031 10.265625 -9.125 C 8.835938 -8.300781 7.367188 -7.515625 5.859375 -6.765625 L 4.96875 -6.3125 C 4.363281 -5.863281 3.679688 -5.488281 2.921875 -5.1875 C 2.171875 -4.882812 1.421875 -4.734375 0.671875 -4.734375 C -0.679688 -4.734375 -2.109375 -5.335938 -3.609375 -6.546875 C -5.265625 -8.046875 -6.09375 -9.429688 -6.09375 -10.703125 C -6.09375 -11.984375 -5.941406 -13.300781 -5.640625 -14.65625 L -5.40625 -15.5625 C -2.707031 -27.894531 1.875 -38.875 8.34375 -48.5 L 8.796875 -49.171875 C 9.097656 -49.773438 9.472656 -50.335938 9.921875 -50.859375 C 10.378906 -51.390625 10.90625 -51.65625 11.5 -51.65625 C 11.957031 -51.65625 12.410156 -51.503906 12.859375 -51.203125 C 13.910156 -50.753906 14.585938 -50.15625 14.890625 -49.40625 C 15.640625 -47.894531 15.675781 -46.125 15 -44.09375 C 14.320312 -42.070312 13.609375 -40.382812 12.859375 -39.03125 C 12.410156 -38.125 12.1875 -37.519531 12.1875 -37.21875 L 4.28125 -16.6875 C 4.132812 -16.382812 3.984375 -15.894531 3.828125 -15.21875 C 3.679688 -14.550781 3.910156 -13.988281 4.515625 -13.53125 C 5.109375 -13.082031 5.859375 -12.859375 6.765625 -12.859375 C 7.671875 -12.859375 8.722656 -13.046875 9.921875 -13.421875 C 11.128906 -13.796875 11.957031 -14.132812 12.40625 -14.4375 C 13.15625 -14.738281 13.832031 -15.078125 14.4375 -15.453125 C 15.039062 -15.828125 15.640625 -16.238281 16.234375 -16.6875 C 16.992188 -17.289062 17.710938 -17.816406 18.390625 -18.265625 C 19.066406 -18.722656 19.78125 -19.101562 20.53125 -19.40625 C 22.9375 -20.601562 25.378906 -21.726562 27.859375 -22.78125 C 30.335938 -23.832031 32.859375 -24.882812 35.421875 -25.9375 C 41.585938 -28.5 47.375 -30.15625 52.78125 -30.90625 C 53.6875 -31.050781 54.515625 -31.125 55.265625 -31.125 C 59.171875 -31.125 62.253906 -29.847656 64.515625 -27.296875 C 67.066406 -24.441406 67.742188 -20.90625 66.546875 -16.6875 C 65.941406 -14.132812 65.148438 -11.65625 64.171875 -9.25 C 63.191406 -6.84375 62.253906 -4.4375 61.359375 -2.03125 C 60.753906 -0.675781 60.1875 0.675781 59.65625 2.03125 C 59.132812 3.382812 58.570312 4.738281 57.96875 6.09375 L 57.75 7 C 57.300781 7.75 57 8.648438 56.84375 9.703125 C 56.695312 10.753906 57.070312 11.726562 57.96875 12.625 C 59.175781 13.832031 60.53125 14.4375 62.03125 14.4375 C 62.632812 14.4375 63.234375 14.359375 63.828125 14.203125 C 64.429688 14.054688 65.035156 13.910156 65.640625 13.765625 C 72.710938 11.660156 78.878906 8.539062 84.140625 4.40625 C 89.398438 0.269531 94.140625 -3.90625 98.359375 -8.125 C 101.816406 -11.582031 105.535156 -15.453125 109.515625 -19.734375 C 113.503906 -24.023438 116.851562 -28.875 119.5625 -34.28125 L 120 -34.734375 C 120.300781 -35.484375 120.710938 -36.269531 121.234375 -37.09375 C 121.765625 -37.925781 122.410156 -38.34375 123.171875 -38.34375 C 123.460938 -38.34375 123.835938 -38.191406 124.296875 -37.890625 Z M 124.296875 -37.890625 "/></g></g></g><g fill="#a17e55" fill-opacity="1"><g transform="translate(2310.568969, 1179.367565)"><g><path d="M 77.140625 -33.390625 C 78.203125 -33.984375 79.40625 -34.28125 80.75 -34.28125 C 80.90625 -33.53125 80.609375 -32.816406 79.859375 -32.140625 C 79.109375 -31.460938 78.429688 -30.828125 77.828125 -30.234375 L 76.25 -29.09375 C 70.976562 -25.039062 65.5625 -21.09375 60 -17.25 C 54.4375 -13.414062 48.457031 -10.257812 42.0625 -7.78125 C 35.675781 -5.300781 28.570312 -4.0625 20.75 -4.0625 L 19.84375 -4.0625 C 12.175781 -4.0625 6.238281 -6.390625 2.03125 -11.046875 C -1.726562 -15.410156 -3.003906 -20.675781 -1.796875 -26.84375 C 2.410156 -47.445312 15.789062 -60.753906 38.34375 -66.765625 C 39.550781 -67.066406 40.753906 -67.21875 41.953125 -67.21875 C 45.566406 -67.21875 48.5 -65.640625 50.75 -62.484375 C 52.5625 -60.078125 53.128906 -58.007812 52.453125 -56.28125 C 51.773438 -54.550781 50.757812 -52.785156 49.40625 -50.984375 C 43.382812 -43.609375 33.457031 -38.867188 19.625 -36.765625 C 14.664062 -36.015625 11.429688 -34.0625 9.921875 -30.90625 C 8.421875 -27.75 7.296875 -24.363281 6.546875 -20.75 L 6.3125 -19.171875 C 5.863281 -17.066406 6.238281 -15.113281 7.4375 -13.3125 C 9.09375 -11.050781 11.726562 -9.394531 15.34375 -8.34375 C 18.050781 -7.59375 20.90625 -7.21875 23.90625 -7.21875 C 26.3125 -7.21875 28.640625 -7.441406 30.890625 -7.890625 C 33.148438 -8.347656 35.5625 -8.953125 38.125 -9.703125 C 46.09375 -11.953125 54.0625 -15.785156 62.03125 -21.203125 C 65.488281 -23.460938 68.945312 -26.171875 72.40625 -29.328125 C 72.707031 -29.472656 73.007812 -29.695312 73.3125 -30 C 73.613281 -30.300781 73.914062 -30.601562 74.21875 -30.90625 C 74.664062 -31.351562 75.113281 -31.765625 75.5625 -32.140625 C 76.019531 -32.515625 76.546875 -32.929688 77.140625 -33.390625 Z M 22.328125 -44.890625 L 20.75 -43.078125 L 23.234375 -43.765625 C 28.492188 -44.960938 32.96875 -46.539062 36.65625 -48.5 C 40.34375 -50.457031 43.539062 -53.613281 46.25 -57.96875 L 47.140625 -59.78125 L 45.109375 -59.09375 C 40.753906 -57.75 36.695312 -56.0625 32.9375 -54.03125 C 29.175781 -52 25.640625 -48.953125 22.328125 -44.890625 Z M 22.328125 -44.890625 "/></g></g></g><g fill="#a17e55" fill-opacity="1"><g transform="translate(2415.235521, 1179.367565)"><g><path d="M 98.578125 -34.96875 C 99.484375 -34.8125 100.007812 -34.582031 100.15625 -34.28125 C 100.300781 -33.832031 100 -33.304688 99.25 -32.703125 C 96.539062 -31.203125 93.535156 -30.453125 90.234375 -30.453125 C 85.867188 -30.453125 81.429688 -31.578125 76.921875 -33.828125 C 72.410156 -36.085938 68.578125 -39.023438 65.421875 -42.640625 C 62.554688 -45.796875 60.375 -48.125 58.875 -49.625 C 57.375 -51.132812 55.796875 -51.890625 54.140625 -51.890625 C 53.085938 -51.890625 51.882812 -51.472656 50.53125 -50.640625 C 49.175781 -49.816406 47.519531 -48.726562 45.5625 -47.375 C 38.34375 -42.257812 31.578125 -36.65625 25.265625 -30.5625 C 18.953125 -24.476562 12.863281 -18.351562 7 -12.1875 L 1.359375 -6.546875 C 1.203125 -6.242188 0.820312 -5.71875 0.21875 -4.96875 C -0.226562 -4.363281 -0.710938 -3.796875 -1.234375 -3.265625 C -1.765625 -2.742188 -2.40625 -2.484375 -3.15625 -2.484375 C -4.0625 -2.484375 -5.191406 -2.929688 -6.546875 -3.828125 C -8.191406 -5.035156 -8.941406 -6.273438 -8.796875 -7.546875 C -8.648438 -8.828125 -8.425781 -10.070312 -8.125 -11.28125 L -7.671875 -12.1875 C -1.648438 -31.28125 5.71875 -48.117188 14.4375 -62.703125 L 14.890625 -63.15625 C 15.335938 -64.0625 15.9375 -64.960938 16.6875 -65.859375 C 17.445312 -66.765625 18.273438 -67.21875 19.171875 -67.21875 C 19.773438 -67.21875 20.453125 -66.992188 21.203125 -66.546875 C 22.253906 -65.796875 22.929688 -65.046875 23.234375 -64.296875 C 23.535156 -63.535156 23.535156 -62.742188 23.234375 -61.921875 C 22.929688 -61.097656 22.554688 -60.304688 22.109375 -59.546875 C 21.804688 -58.648438 21.582031 -58.050781 21.4375 -57.75 L 19.625 -53.46875 C 18.71875 -51.207031 17.773438 -48.910156 16.796875 -46.578125 C 15.828125 -44.242188 14.816406 -41.953125 13.765625 -39.703125 C 13.160156 -38.203125 12.484375 -36.695312 11.734375 -35.1875 C 10.984375 -33.6875 10.304688 -32.179688 9.703125 -30.671875 C 9.546875 -30.671875 9.242188 -30.066406 8.796875 -28.859375 C 8.347656 -27.660156 7.9375 -26.382812 7.5625 -25.03125 C 7.1875 -23.6875 7.144531 -22.785156 7.4375 -22.328125 L 7.890625 -21.875 L 8.34375 -21.875 C 9.851562 -22.175781 11.132812 -22.78125 12.1875 -23.6875 C 13.238281 -24.59375 14.210938 -25.570312 15.109375 -26.625 C 15.410156 -26.914062 15.75 -27.25 16.125 -27.625 C 16.5 -28.007812 16.914062 -28.425781 17.375 -28.875 L 26.84375 -36.765625 C 29.851562 -39.328125 32.859375 -41.847656 35.859375 -44.328125 C 38.867188 -46.804688 41.878906 -49.25 44.890625 -51.65625 C 48.953125 -54.664062 52.035156 -56.171875 54.140625 -56.171875 C 56.097656 -56.171875 58.015625 -55.304688 59.890625 -53.578125 C 61.765625 -51.847656 64.132812 -49.253906 67 -45.796875 C 70.15625 -41.878906 73.800781 -38.832031 77.9375 -36.65625 C 82.070312 -34.476562 86.242188 -33.390625 90.453125 -33.390625 C 91.804688 -33.390625 93.160156 -33.539062 94.515625 -33.84375 C 94.960938 -33.84375 95.566406 -33.988281 96.328125 -34.28125 C 97.378906 -34.738281 98.128906 -34.96875 98.578125 -34.96875 Z M 98.578125 -34.96875 "/></g></g></g><g fill="#a17e55" fill-opacity="1"><g transform="translate(2538.399222, 1179.367565)"><g/></g></g><g fill="#a17e55" fill-opacity="1"><g transform="translate(2633.817199, 1179.367565)"><g><path d="M 96.328125 -195.578125 C 98.128906 -193.921875 98.84375 -192.378906 98.46875 -190.953125 C 98.09375 -189.523438 97.226562 -187.910156 95.875 -186.109375 C 94.0625 -183.992188 92.363281 -181.734375 90.78125 -179.328125 C 89.207031 -176.921875 87.59375 -174.59375 85.9375 -172.34375 C 85.789062 -172.1875 85.679688 -172.035156 85.609375 -171.890625 C 85.535156 -171.742188 85.421875 -171.59375 85.265625 -171.4375 C 77.148438 -159.707031 69.40625 -147.90625 62.03125 -136.03125 C 45.488281 -109.101562 30.597656 -80.898438 17.359375 -51.421875 C 4.128906 -21.953125 -6.46875 8.492188 -14.4375 39.921875 C -19.851562 61.578125 -22.332031 81.351562 -21.875 99.25 C -21.875 100 -21.953125 100.753906 -22.109375 101.515625 C -22.109375 103.160156 -22.03125 104.734375 -21.875 106.234375 C -21.726562 107.742188 -21.050781 109.101562 -19.84375 110.3125 C -18.34375 112.113281 -15.789062 113.238281 -12.1875 113.6875 C -11.582031 113.6875 -11.054688 113.988281 -10.609375 114.59375 C -9.847656 115.195312 -9.394531 116.097656 -9.25 117.296875 C -9.09375 118.648438 -9.351562 119.550781 -10.03125 120 C -10.707031 120.457031 -11.5 120.6875 -12.40625 120.6875 L -12.625 120.6875 C -20.90625 120.6875 -26.242188 116.773438 -28.640625 108.953125 C -29.847656 104.742188 -30.414062 100.679688 -30.34375 96.765625 C -30.269531 92.859375 -30.003906 89.023438 -29.546875 85.265625 L -29.328125 83.015625 C -27.367188 60.453125 -23.269531 38.601562 -17.03125 17.46875 C -10.789062 -3.65625 -3.3125 -24.175781 5.40625 -44.09375 C 14.132812 -64.019531 23.160156 -83.382812 32.484375 -102.1875 C 40.453125 -118.125 48.609375 -133.875 56.953125 -149.4375 C 65.304688 -165.007812 75.5 -179.335938 87.53125 -192.421875 C 87.675781 -192.722656 88.050781 -193.25 88.65625 -194 C 89.25 -194.75 89.882812 -195.460938 90.5625 -196.140625 C 91.238281 -196.816406 92.03125 -197.15625 92.9375 -197.15625 C 93.84375 -197.15625 94.972656 -196.628906 96.328125 -195.578125 Z M 96.328125 -195.578125 "/></g></g></g><g fill="#a17e55" fill-opacity="1"><g transform="translate(2704.422047, 1179.367565)"><g><path d="M 78.5 -35.859375 C 78.945312 -35.566406 79.171875 -34.894531 79.171875 -33.84375 C 79.171875 -32.78125 78.53125 -31.796875 77.25 -30.890625 C 75.976562 -29.992188 74.96875 -29.242188 74.21875 -28.640625 C 71.65625 -26.390625 69.019531 -24.210938 66.3125 -22.109375 C 63.613281 -20.003906 60.910156 -17.972656 58.203125 -16.015625 C 52.484375 -11.953125 46.425781 -8.34375 40.03125 -5.1875 C 33.644531 -2.03125 26.84375 0.445312 19.625 2.25 C 16.613281 3.15625 13.453125 3.609375 10.140625 3.609375 C 6.835938 3.609375 3.53125 2.101562 0.21875 -0.90625 C -3.082031 -3.757812 -4.921875 -6.800781 -5.296875 -10.03125 C -5.671875 -13.269531 -5.410156 -16.394531 -4.515625 -19.40625 C -1.804688 -29.625 2.023438 -39.171875 6.984375 -48.046875 C 11.953125 -56.921875 17.894531 -65.117188 24.8125 -72.640625 C 25.5625 -73.691406 26.5 -74.664062 27.625 -75.5625 C 28.757812 -76.46875 30.300781 -76.171875 32.25 -74.671875 C 34.363281 -73.015625 35.039062 -71.546875 34.28125 -70.265625 C 33.53125 -68.984375 32.851562 -67.816406 32.25 -66.765625 C 27.445312 -59.097656 22.785156 -51.425781 18.265625 -43.75 C 13.753906 -36.082031 9.769531 -28.039062 6.3125 -19.625 C 5.707031 -18.125 4.953125 -16.546875 4.046875 -14.890625 C 3.148438 -13.234375 2.703125 -11.539062 2.703125 -9.8125 C 2.703125 -8.082031 3.53125 -6.390625 5.1875 -4.734375 C 7.894531 -1.878906 10.898438 -0.675781 14.203125 -1.125 C 17.515625 -1.570312 20.597656 -2.097656 23.453125 -2.703125 C 29.171875 -4.054688 34.507812 -6.085938 39.46875 -8.796875 C 44.4375 -11.503906 49.175781 -14.515625 53.6875 -17.828125 C 54.289062 -18.273438 55.796875 -19.550781 58.203125 -21.65625 C 60.609375 -23.757812 63.238281 -26.015625 66.09375 -28.421875 C 68.945312 -30.828125 71.578125 -32.78125 73.984375 -34.28125 C 76.390625 -35.789062 77.894531 -36.316406 78.5 -35.859375 Z M 42.1875 -85.265625 C 38.726562 -84.960938 36.546875 -86.539062 35.640625 -90 C 34.890625 -93.007812 35.191406 -95.15625 36.546875 -96.4375 C 37.898438 -97.71875 39.851562 -98.429688 42.40625 -98.578125 C 44.207031 -98.722656 45.785156 -98.34375 47.140625 -97.4375 C 48.492188 -96.539062 49.472656 -94.890625 50.078125 -92.484375 C 50.222656 -90.078125 49.546875 -88.347656 48.046875 -87.296875 C 46.546875 -86.242188 44.59375 -85.566406 42.1875 -85.265625 Z M 42.1875 -85.265625 "/></g></g></g><g fill="#a17e55" fill-opacity="1"><g transform="translate(2806.607157, 1179.367565)"><g><path d="M 116.390625 -40.609375 C 117.148438 -40.609375 117.675781 -40.53125 117.96875 -40.375 C 118.269531 -40.226562 118.5 -40.15625 118.65625 -40.15625 C 118.800781 -39.25 118.082031 -38.492188 116.5 -37.890625 C 114.925781 -37.296875 113.613281 -36.847656 112.5625 -36.546875 C 111.957031 -36.390625 111.503906 -36.238281 111.203125 -36.09375 C 105.796875 -34.132812 100.644531 -32.023438 95.75 -29.765625 C 90.863281 -27.515625 86.394531 -24.585938 82.34375 -20.984375 C 74.820312 -14.515625 68.804688 -6.09375 64.296875 4.28125 C 52.710938 31.351562 34.738281 57.296875 10.375 82.109375 C 7.664062 84.816406 4.734375 87.375 1.578125 89.78125 C -1.578125 92.1875 -5.410156 93.765625 -9.921875 94.515625 C -11.273438 94.671875 -12.554688 94.75 -13.765625 94.75 C -17.367188 94.75 -20.453125 93.46875 -23.015625 90.90625 C -25.117188 88.800781 -26.207031 86.65625 -26.28125 84.46875 C -26.351562 82.289062 -26.164062 80.226562 -25.71875 78.28125 C -24.363281 73.164062 -22.21875 68.648438 -19.28125 64.734375 C -16.351562 60.828125 -13.234375 57.070312 -9.921875 53.46875 C 3.304688 38.726562 15.972656 25.265625 28.078125 13.078125 C 40.191406 0.898438 53.46875 -10.148438 67.90625 -20.078125 C 71.363281 -22.328125 73.691406 -25.40625 74.890625 -29.3125 C 76.097656 -33.226562 77.078125 -37.21875 77.828125 -41.28125 L 78.5 -44.671875 C 78.800781 -46.617188 78.425781 -48.195312 77.375 -49.40625 C 77.070312 -49.707031 76.546875 -50.046875 75.796875 -50.421875 C 75.046875 -50.796875 73.992188 -50.984375 72.640625 -50.984375 C 72.179688 -50.984375 71.804688 -50.984375 71.515625 -50.984375 C 68.203125 -50.679688 64.890625 -49.25 61.578125 -46.6875 C 58.273438 -44.132812 55.53125 -41.085938 53.34375 -37.546875 C 51.164062 -34.015625 50.148438 -30.597656 50.296875 -27.296875 C 50.296875 -25.492188 49.921875 -24.515625 49.171875 -24.359375 C 48.867188 -24.210938 48.570312 -24.140625 48.28125 -24.140625 C 47.519531 -24.140625 47.066406 -24.441406 46.921875 -25.046875 C 46.472656 -26.097656 45.867188 -27.222656 45.109375 -28.421875 C 44.359375 -29.628906 43.457031 -30.234375 42.40625 -30.234375 C 41.800781 -30.234375 41.234375 -29.96875 40.703125 -29.4375 C 40.179688 -28.90625 39.695312 -28.34375 39.25 -27.75 C 38.800781 -27 38.5 -26.546875 38.34375 -26.390625 C 37.445312 -25.640625 36.507812 -24.847656 35.53125 -24.015625 C 34.550781 -23.191406 33.609375 -22.40625 32.703125 -21.65625 C 29.992188 -19.394531 27.25 -17.132812 24.46875 -14.875 C 21.6875 -12.625 18.644531 -10.671875 15.34375 -9.015625 C 13.988281 -8.421875 12.671875 -7.859375 11.390625 -7.328125 C 10.109375 -6.804688 8.789062 -6.546875 7.4375 -6.546875 C 5.03125 -6.546875 2.703125 -7.445312 0.453125 -9.25 C -2.554688 -11.65625 -4.0625 -14.171875 -4.0625 -16.796875 C -4.0625 -19.429688 -3.835938 -21.953125 -3.390625 -24.359375 C -0.078125 -38.796875 7.59375 -48.644531 19.625 -53.90625 C 22.78125 -55.257812 25.640625 -55.9375 28.203125 -55.9375 C 33.910156 -55.9375 39.546875 -52.328125 45.109375 -45.109375 C 45.710938 -44.210938 46.351562 -43.460938 47.03125 -42.859375 C 47.707031 -42.253906 48.421875 -41.953125 49.171875 -41.953125 C 49.628906 -41.953125 50.382812 -42.328125 51.4375 -43.078125 L 52.328125 -43.53125 C 54.585938 -45.1875 56.921875 -46.765625 59.328125 -48.265625 C 61.734375 -49.773438 64.289062 -51.128906 67 -52.328125 C 69.101562 -53.378906 70.984375 -53.90625 72.640625 -53.90625 C 74.585938 -53.90625 76.316406 -53.304688 77.828125 -52.109375 C 79.773438 -50.609375 80.898438 -48.84375 81.203125 -46.8125 C 81.503906 -44.78125 81.582031 -42.632812 81.4375 -40.375 C 81.4375 -39.320312 81.359375 -38.234375 81.203125 -37.109375 C 81.054688 -35.984375 80.832031 -34.816406 80.53125 -33.609375 L 79.859375 -29.09375 L 81.203125 -28.640625 C 81.359375 -28.941406 82.300781 -29.429688 84.03125 -30.109375 C 85.757812 -30.785156 87.070312 -31.273438 87.96875 -31.578125 C 89.175781 -31.878906 89.929688 -32.101562 90.234375 -32.25 C 91.890625 -33.007812 93.46875 -33.726562 94.96875 -34.40625 C 96.46875 -35.082031 97.972656 -35.71875 99.484375 -36.3125 C 102.941406 -37.664062 107.226562 -38.945312 112.34375 -40.15625 C 112.789062 -40.15625 113.390625 -40.226562 114.140625 -40.375 C 114.890625 -40.53125 115.640625 -40.609375 116.390625 -40.609375 Z M 38.796875 -32.25 C 39.703125 -33.007812 40.492188 -33.875 41.171875 -34.84375 C 41.847656 -35.820312 41.429688 -37.363281 39.921875 -39.46875 C 38.722656 -41.125 37.257812 -42.664062 35.53125 -44.09375 C 33.800781 -45.53125 31.429688 -46.25 28.421875 -46.25 L 28.203125 -46.25 C 15.117188 -42.789062 6.546875 -34.441406 2.484375 -21.203125 C 2.179688 -20.003906 1.953125 -18.613281 1.796875 -17.03125 C 1.648438 -15.445312 2.40625 -13.976562 4.0625 -12.625 C 5.113281 -11.570312 6.316406 -11.046875 7.671875 -11.046875 C 8.421875 -11.046875 9.171875 -11.195312 9.921875 -11.5 C 10.671875 -11.800781 11.347656 -12.101562 11.953125 -12.40625 C 16.316406 -14.507812 20.1875 -16.914062 23.5625 -19.625 C 26.945312 -22.332031 30.222656 -25.039062 33.390625 -27.75 C 34.140625 -28.34375 34.890625 -28.976562 35.640625 -29.65625 C 36.390625 -30.332031 37.066406 -30.972656 37.671875 -31.578125 C 37.816406 -31.734375 38.191406 -31.957031 38.796875 -32.25 Z M -3.390625 81.65625 C 11.046875 69.476562 23.453125 55.601562 33.828125 40.03125 C 44.210938 24.46875 53.765625 8.867188 62.484375 -6.765625 L 61.359375 -7.671875 C 54.285156 -3.460938 47.816406 1.304688 41.953125 6.640625 C 36.085938 11.984375 30.523438 17.363281 25.265625 22.78125 C 23.304688 24.738281 21.347656 26.691406 19.390625 28.640625 C 17.441406 30.597656 15.414062 32.554688 13.3125 34.515625 C 7.75 39.773438 2.300781 45.257812 -3.03125 50.96875 C -8.375 56.6875 -13.078125 63.003906 -17.140625 69.921875 L -18.265625 71.734375 C -19.617188 73.835938 -20.707031 76.128906 -21.53125 78.609375 C -22.363281 81.097656 -21.503906 83.46875 -18.953125 85.71875 C -17.441406 87.070312 -15.785156 87.75 -13.984375 87.75 C -12.179688 87.75 -10.488281 87.179688 -8.90625 86.046875 C -7.332031 84.921875 -5.867188 83.757812 -4.515625 82.5625 Z M -3.390625 81.65625 "/></g></g></g><g fill="#a17e55" fill-opacity="1"><g transform="translate(2947.140031, 1179.367565)"><g><path d="M 138.046875 -34.515625 C 139.109375 -32.410156 138.660156 -30.003906 136.703125 -27.296875 C 134.742188 -24.585938 133.015625 -22.332031 131.515625 -20.53125 C 130.609375 -19.625 130.003906 -18.945312 129.703125 -18.5 C 114.367188 1.195312 97.453125 14.28125 78.953125 20.75 C 77.597656 21.207031 76.164062 21.660156 74.65625 22.109375 C 73.15625 22.554688 71.578125 22.78125 69.921875 22.78125 C 66.617188 22.78125 63.539062 21.578125 60.6875 19.171875 C 57.675781 16.765625 55.90625 14.019531 55.375 10.9375 C 54.851562 7.851562 54.59375 4.582031 54.59375 1.125 C 54.738281 -6.09375 56.050781 -12.742188 58.53125 -18.828125 C 61.019531 -24.921875 63.691406 -30.898438 66.546875 -36.765625 L 68.34375 -40.609375 C 68.800781 -41.359375 69.253906 -42.484375 69.703125 -43.984375 C 70.148438 -45.492188 69.847656 -46.695312 68.796875 -47.59375 C 68.046875 -48.195312 67.144531 -48.5 66.09375 -48.5 C 63.832031 -48.5 61.160156 -47.332031 58.078125 -45 C 55.003906 -42.664062 52.265625 -40.375 49.859375 -38.125 L 49.40625 -37.671875 C 47.59375 -36.171875 45.894531 -34.554688 44.3125 -32.828125 C 42.738281 -31.097656 41.203125 -29.40625 39.703125 -27.75 C 38.796875 -26.84375 37.851562 -25.898438 36.875 -24.921875 C 35.90625 -23.941406 34.96875 -22.925781 34.0625 -21.875 L 29.328125 -17.140625 C 26.472656 -14.285156 23.613281 -11.390625 20.75 -8.453125 C 17.894531 -5.523438 14.960938 -2.632812 11.953125 0.21875 C 11.054688 1.125 10.078125 1.914062 9.015625 2.59375 C 7.960938 3.269531 6.757812 3.609375 5.40625 3.609375 C 4.0625 3.609375 2.710938 3.15625 1.359375 2.25 C -0.898438 0.894531 -2.179688 -0.71875 -2.484375 -2.59375 C -2.785156 -4.46875 -2.859375 -6.460938 -2.703125 -8.578125 C -2.253906 -17.742188 -0.566406 -26.460938 2.359375 -34.734375 C 5.296875 -43.003906 8.34375 -51.125 11.5 -59.09375 C 12.707031 -61.800781 14.925781 -66.238281 18.15625 -72.40625 C 21.394531 -78.570312 25.226562 -85.675781 29.65625 -93.71875 C 34.09375 -101.769531 38.789062 -110.15625 43.75 -118.875 C 48.71875 -127.601562 53.492188 -135.953125 58.078125 -143.921875 C 62.671875 -151.890625 66.660156 -158.878906 70.046875 -164.890625 C 73.429688 -170.910156 75.875 -175.273438 77.375 -177.984375 C 79.625 -181.890625 81.953125 -185.757812 84.359375 -189.59375 C 86.765625 -193.425781 89.320312 -197.148438 92.03125 -200.765625 C 92.9375 -201.960938 94.21875 -203.765625 95.875 -206.171875 C 97.53125 -208.578125 99.367188 -210.757812 101.390625 -212.71875 C 103.421875 -214.675781 105.414062 -215.503906 107.375 -215.203125 C 109.476562 -215.046875 110.492188 -214.101562 110.421875 -212.375 C 110.347656 -210.644531 109.859375 -208.726562 108.953125 -206.625 C 107.753906 -204.070312 106.328125 -201.59375 104.671875 -199.1875 C 103.015625 -196.78125 101.960938 -195.273438 101.515625 -194.671875 C 98.347656 -190.609375 94.359375 -184.703125 89.546875 -176.953125 C 84.742188 -169.210938 79.484375 -160.378906 73.765625 -150.453125 C 68.046875 -140.535156 62.21875 -130.238281 56.28125 -119.5625 C 50.34375 -108.882812 44.738281 -98.46875 39.46875 -88.3125 C 34.207031 -78.164062 29.582031 -68.957031 25.59375 -60.6875 C 21.613281 -52.414062 18.796875 -45.796875 17.140625 -40.828125 C 15.335938 -35.710938 13.304688 -30.597656 11.046875 -25.484375 C 8.796875 -20.378906 7.144531 -15.117188 6.09375 -9.703125 C 5.789062 -7.742188 6.015625 -6.390625 6.765625 -5.640625 C 7.210938 -5.191406 7.816406 -4.96875 8.578125 -4.96875 C 9.328125 -4.96875 10.300781 -5.191406 11.5 -5.640625 C 13.3125 -6.546875 14.890625 -7.671875 16.234375 -9.015625 C 17.585938 -10.367188 18.867188 -11.800781 20.078125 -13.3125 C 20.523438 -13.914062 21.007812 -14.515625 21.53125 -15.109375 C 22.0625 -15.710938 22.628906 -16.316406 23.234375 -16.921875 C 24.285156 -17.972656 25.335938 -19.0625 26.390625 -20.1875 C 27.441406 -21.3125 28.492188 -22.476562 29.546875 -23.6875 C 30.753906 -24.882812 31.992188 -26.160156 33.265625 -27.515625 C 34.546875 -28.867188 35.789062 -30.148438 37 -31.359375 L 37.671875 -32.03125 C 41.578125 -35.9375 45.632812 -39.804688 49.84375 -43.640625 C 54.0625 -47.484375 58.578125 -50.90625 63.390625 -53.90625 C 64.285156 -54.507812 65.296875 -55.148438 66.421875 -55.828125 C 67.554688 -56.503906 68.800781 -56.84375 70.15625 -56.84375 C 71.65625 -56.84375 73.082031 -56.316406 74.4375 -55.265625 C 78.195312 -52.554688 79.175781 -48.492188 77.375 -43.078125 C 76.019531 -38.566406 74.585938 -34.164062 73.078125 -29.875 C 71.578125 -25.59375 70.078125 -21.425781 68.578125 -17.375 L 67.453125 -14.21875 C 66.242188 -10.90625 65.078125 -7.519531 63.953125 -4.0625 C 62.828125 -0.601562 62.035156 3.003906 61.578125 6.765625 C 61.273438 10.972656 62.03125 14.054688 63.84375 16.015625 C 65.644531 17.816406 68.273438 18.71875 71.734375 18.71875 C 72.484375 18.71875 73.3125 18.71875 74.21875 18.71875 C 78.125 18.269531 81.691406 17.332031 84.921875 15.90625 C 88.160156 14.476562 91.054688 12.9375 93.609375 11.28125 C 102.035156 6.019531 109.628906 -0.445312 116.390625 -8.125 C 118.347656 -10.226562 120.15625 -12.484375 121.8125 -14.890625 C 123.46875 -17.296875 125.046875 -19.703125 126.546875 -22.109375 C 127.597656 -23.765625 128.648438 -25.414062 129.703125 -27.0625 C 130.753906 -28.71875 131.804688 -30.375 132.859375 -32.03125 C 133.316406 -32.476562 133.957031 -33.078125 134.78125 -33.828125 C 135.613281 -34.585938 136.40625 -34.96875 137.15625 -34.96875 C 137.457031 -34.96875 137.753906 -34.816406 138.046875 -34.515625 Z M 138.046875 -34.515625 "/></g></g></g><g fill="#a17e55" fill-opacity="1"><g transform="translate(3108.425825, 1179.367565)"><g><path d="M 130.15625 -110.765625 C 130.601562 -110.304688 130.90625 -109.628906 131.0625 -108.734375 C 131.0625 -108.273438 130.945312 -107.859375 130.71875 -107.484375 C 130.5 -107.109375 129.863281 -106.921875 128.8125 -106.921875 C 128.351562 -106.921875 127.859375 -106.957031 127.328125 -107.03125 C 126.804688 -107.113281 126.320312 -107.15625 125.875 -107.15625 L 124.75 -107.375 C 116.476562 -108.425781 108.316406 -109.101562 100.265625 -109.40625 C 92.222656 -109.707031 84.441406 -109.859375 76.921875 -109.859375 L 65.421875 -109.625 C 63.460938 -109.625 61.46875 -109.660156 59.4375 -109.734375 C 57.40625 -109.816406 55.414062 -109.859375 53.46875 -109.859375 C 51.0625 -109.859375 49.03125 -109.554688 47.375 -108.953125 C 45.71875 -108.347656 44.4375 -107.070312 43.53125 -105.125 L 39.46875 -97.453125 C 29.695312 -78.503906 20.148438 -59.023438 10.828125 -39.015625 C 1.503906 -19.015625 -5.9375 1.957031 -11.5 23.90625 C -15.863281 41.050781 -17.894531 56.769531 -17.59375 71.0625 C -17.59375 71.65625 -17.59375 72.253906 -17.59375 72.859375 C -17.59375 74.210938 -17.554688 75.488281 -17.484375 76.6875 C -17.410156 77.894531 -16.921875 79.023438 -16.015625 80.078125 C -14.660156 81.429688 -12.628906 82.257812 -9.921875 82.5625 C -9.316406 82.5625 -8.867188 82.785156 -8.578125 83.234375 C -7.972656 83.835938 -7.59375 84.59375 -7.4375 85.5 C -7.289062 86.550781 -7.515625 87.265625 -8.109375 87.640625 C -8.710938 88.015625 -9.316406 88.203125 -9.921875 88.203125 L -10.15625 88.203125 C -16.769531 88.203125 -20.976562 85.046875 -22.78125 78.734375 C -23.832031 75.421875 -24.320312 72.222656 -24.25 69.140625 C -24.175781 66.054688 -23.988281 63.007812 -23.6875 60 L -23.453125 58.203125 C -22.253906 44.660156 -20 31.570312 -16.6875 18.9375 C -13.382812 6.3125 -9.4375 -5.9375 -4.84375 -17.8125 C -0.257812 -29.695312 4.359375 -41.429688 9.015625 -53.015625 L 10.375 -55.9375 C 12.632812 -61.65625 15.113281 -67.257812 17.8125 -72.75 C 20.519531 -78.238281 23.15625 -83.691406 25.71875 -89.109375 C 27.070312 -91.660156 28.382812 -94.210938 29.65625 -96.765625 C 30.9375 -99.328125 32.179688 -101.882812 33.390625 -104.4375 C 33.691406 -105.195312 33.878906 -106.0625 33.953125 -107.03125 C 34.023438 -108.007812 33.457031 -109.550781 32.25 -111.65625 L 31.8125 -112.109375 L 31.359375 -112.109375 C 28.046875 -112.109375 24.660156 -112.109375 21.203125 -112.109375 C 17.742188 -112.109375 14.285156 -112.109375 10.828125 -112.109375 C 7.367188 -112.265625 3.867188 -112.34375 0.328125 -112.34375 C -3.203125 -112.34375 -6.769531 -112.34375 -10.375 -112.34375 C -21.5 -112.34375 -31.347656 -112.191406 -39.921875 -111.890625 C -41.734375 -111.734375 -43.539062 -111.65625 -45.34375 -111.65625 C -47.144531 -111.65625 -48.945312 -111.65625 -50.75 -111.65625 C -55.414062 -111.507812 -60.113281 -111.320312 -64.84375 -111.09375 C -69.582031 -110.875 -74.132812 -110.238281 -78.5 -109.1875 C -79.851562 -108.882812 -80.984375 -108.734375 -81.890625 -108.734375 C -82.941406 -108.734375 -83.84375 -108.957031 -84.59375 -109.40625 C -85.039062 -109.851562 -85.414062 -110.601562 -85.71875 -111.65625 C -86.019531 -113.007812 -85.34375 -113.6875 -83.6875 -113.6875 C -83.382812 -113.6875 -82.78125 -113.648438 -81.875 -113.578125 C -80.976562 -113.503906 -80.53125 -113.46875 -80.53125 -113.46875 L -79.859375 -113.46875 C -71.429688 -114.21875 -63.117188 -114.703125 -54.921875 -114.921875 C -46.734375 -115.148438 -39.40625 -115.265625 -32.9375 -115.265625 C -29.476562 -115.265625 -25.976562 -115.265625 -22.4375 -115.265625 C -18.90625 -115.265625 -15.410156 -115.265625 -11.953125 -115.265625 C -8.492188 -115.117188 -5 -115.046875 -1.46875 -115.046875 C 2.0625 -115.046875 5.554688 -115.046875 9.015625 -115.046875 C 12.328125 -115.046875 15.632812 -115.046875 18.9375 -115.046875 C 22.25 -115.046875 25.5625 -115.117188 28.875 -115.265625 C 32.03125 -115.421875 34.847656 -115.984375 37.328125 -116.953125 C 39.816406 -117.929688 41.734375 -119.925781 43.078125 -122.9375 C 49.546875 -136.175781 58.347656 -148.8125 69.484375 -160.84375 C 69.628906 -161.132812 69.925781 -161.507812 70.375 -161.96875 C 70.832031 -162.570312 71.320312 -163.171875 71.84375 -163.765625 C 72.375 -164.367188 73.015625 -164.671875 73.765625 -164.671875 C 74.515625 -164.671875 75.414062 -164.21875 76.46875 -163.3125 C 77.820312 -162.113281 78.347656 -160.910156 78.046875 -159.703125 C 77.742188 -158.503906 77.144531 -157.226562 76.25 -155.875 C 75.039062 -154.21875 73.910156 -152.632812 72.859375 -151.125 C 71.804688 -149.625 70.753906 -148.195312 69.703125 -146.84375 C 66.390625 -142.332031 63.078125 -137.632812 59.765625 -132.75 C 56.460938 -127.863281 53.382812 -122.488281 50.53125 -116.625 L 49.859375 -115.5 L 69.921875 -115.5 C 85.867188 -115.5 103.914062 -114.296875 124.0625 -111.890625 C 124.363281 -111.890625 124.890625 -111.890625 125.640625 -111.890625 C 126.398438 -111.890625 127.191406 -111.8125 128.015625 -111.65625 C 128.835938 -111.507812 129.550781 -111.210938 130.15625 -110.765625 Z M 130.15625 -110.765625 "/></g></g></g><g fill="#a17e55" fill-opacity="1"><g transform="translate(3174.981793, 1179.367565)"><g><path d="M 28.203125 -5.640625 C 28.953125 -3.835938 28.648438 -1.882812 27.296875 0.21875 C 25.492188 3.082031 23.390625 4.515625 20.984375 4.515625 L 20.296875 4.28125 C 16.085938 3.976562 13.457031 2.097656 12.40625 -1.359375 C 11.957031 -3.003906 12.179688 -4.582031 13.078125 -6.09375 C 15.035156 -8.800781 17.441406 -10.15625 20.296875 -10.15625 C 21.648438 -10.15625 23.082031 -9.773438 24.59375 -9.015625 C 26.394531 -8.117188 27.597656 -6.992188 28.203125 -5.640625 Z M 28.203125 -5.640625 "/></g></g></g><g fill="#a17e55" fill-opacity="1"><g transform="translate(3243.556446, 1179.367565)"><g><path d="M 28.203125 -5.640625 C 28.953125 -3.835938 28.648438 -1.882812 27.296875 0.21875 C 25.492188 3.082031 23.390625 4.515625 20.984375 4.515625 L 20.296875 4.28125 C 16.085938 3.976562 13.457031 2.097656 12.40625 -1.359375 C 11.957031 -3.003906 12.179688 -4.582031 13.078125 -6.09375 C 15.035156 -8.800781 17.441406 -10.15625 20.296875 -10.15625 C 21.648438 -10.15625 23.082031 -9.773438 24.59375 -9.015625 C 26.394531 -8.117188 27.597656 -6.992188 28.203125 -5.640625 Z M 28.203125 -5.640625 "/></g></g></g><g fill="#a17e55" fill-opacity="1"><g transform="translate(3312.131099, 1179.367565)"><g><path d="M 28.203125 -5.640625 C 28.953125 -3.835938 28.648438 -1.882812 27.296875 0.21875 C 25.492188 3.082031 23.390625 4.515625 20.984375 4.515625 L 20.296875 4.28125 C 16.085938 3.976562 13.457031 2.097656 12.40625 -1.359375 C 11.957031 -3.003906 12.179688 -4.582031 13.078125 -6.09375 C 15.035156 -8.800781 17.441406 -10.15625 20.296875 -10.15625 C 21.648438 -10.15625 23.082031 -9.773438 24.59375 -9.015625 C 26.394531 -8.117188 27.597656 -6.992188 28.203125 -5.640625 Z M 28.203125 -5.640625 "/></g></g></g></svg>